<svg version="1.1" xmlns="http://www.w3.org/2000/svg" xmlns:xlink="http://www.w3.org/1999/xlink" x="0px" y="0px" width="270.117px" height="269.421px" viewBox="0 0 270.117 269.421" enable-background="new 0 0 270.117 269.421" xml:space="preserve"> <path fill="#FFFFFF" d="M130.385,268.921c-19.604,0-39.814-0.111-60.024-0.409 c-25.296-0.374-44.405-9.457-56.795-26.998c-8.001-11.327-12.267-25.162-12.68-41.121c-0.402-15.457-0.314-31.111-0.23-46.252 c0.035-6.425,0.071-12.849,0.071-19.272c-0.004-6.348-0.059-12.828-0.114-19.095c-0.127-14.892-0.26-30.29,0.277-45.511 c0.912-25.835,9.894-44.278,27.458-56.384C40.083,5.791,53.904,1.713,70.604,1.411c39.372-0.714,72.303-0.995,103.62-0.89 C190,0.575,202.787,1.534,214.469,3.54c31.363,5.383,50.656,26.347,52.933,57.517c1.693,23.196,1.885,46.744,2.07,69.516 c0.028,3.408,0.056,6.816,0.089,10.224c0.201,21.036-0.131,40.275-1.011,58.818c-0.79,16.612-4.477,40.532-27.261,56.366 c-11.79,8.193-25.86,12.423-41.823,12.571C178.184,268.749,154.756,268.921,130.385,268.921 M161.324,18.499 c-27.402,0-56.495,0.294-90.394,0.909c-13.051,0.236-23.638,3.275-32.367,9.291c-12.722,8.769-18.977,22.177-19.684,42.197 c-0.523,14.827-0.392,30.025-0.266,44.722c0.054,6.302,0.11,12.819,0.114,19.244c0,6.463-0.036,12.921-0.072,19.379 c-0.083,15.001-0.169,30.512,0.225,45.685c0.324,12.511,3.394,22.718,9.387,31.203c9.011,12.756,22.868,19.097,42.36,19.385 c45.146,0.666,90.378,0.395,128.672,0.039c12.279-0.113,22.951-3.26,31.718-9.353c12.54-8.715,18.571-21.805,19.551-42.44 c0.865-18.196,1.191-37.101,0.992-57.791c-0.032-3.415-0.061-6.831-0.088-10.249c-0.184-22.486-0.373-45.738-2.024-68.353 c-1.646-22.569-15.15-37.161-38.024-41.087c-10.671-1.832-22.511-2.708-37.261-2.759C169.918,18.506,165.641,18.499,161.324,18.499 "></path> <path fill="#FFFFFF" d="M229.526,51.087c0,7.83-6.348,14.177-14.177,14.177c-7.83,0-14.177-6.347-14.177-14.177 s6.347-14.177,14.177-14.177C223.179,36.911,229.526,43.257,229.526,51.087"></path> <circle fill="none" stroke="#FFFFFF" stroke-miterlimit="10" cx="215.35" cy="51.087" r="14.177"></circle> <circle fill="none" stroke="#FFFFFF" stroke-width="20" stroke-miterlimit="10" cx="134.72" cy="135.021" r="56.829"></circle> </svg>