<svg class="block" xmlns="http://www.w3.org/2000/svg" viewBox="0 0 269.76 270.16" fill="rgb(0, 193, 222)">
					<defs>
						<g id="logoFlower">
							<path class="cls-1" d="M421.23,250.35c-2.78-4.78-2.77-10,0-11.62s7.34.93,10.12,5.71,1.65,8.05-1.15,9.68-6.21,1-9-3.77"></path>
							<path class="cls-1" d="M508.49,163.1c-4.79-2.79-10-2.77-11.63,0s.93,7.34,5.71,10.12,8.05,1.65,9.68-1.16,1-6.2-3.76-9"></path>
							<path class="cls-1" d="M508.49,107.05c-4.79,2.79-10,2.78-11.63,0s.93-7.34,5.71-10.13,8.05-1.64,9.68,1.16,1,6.21-3.76,9"></path>
							<path class="cls-1" d="M421.23,19.8c-2.78,4.79-2.77,10,0,11.63s7.34-.93,10.12-5.72,1.65-8-1.15-9.68-6.21-1-9,3.77"></path>
							<path class="cls-1" d="M365.19,19.8c2.78,4.79,2.77,10,0,11.63s-7.34-.93-10.13-5.72-1.64-8,1.16-9.68,6.21-1,9,3.77"></path>
							<path class="cls-1" d="M277.93,107.05c4.79,2.79,10,2.78,11.63,0s-.93-7.34-5.72-10.13-8-1.64-9.68,1.16-1,6.21,3.77,9"></path>
							<path class="cls-1" d="M277.93,163.1c4.79-2.79,10-2.77,11.63,0s-.93,7.34-5.72,10.12-8,1.65-9.68-1.16-1-6.2,3.77-9"></path>
							<path class="cls-1" d="M365.18,250.35c2.79-4.78,2.78-10,0-11.62s-7.34.93-10.13,5.71-1.64,8.05,1.16,9.68,6.21,1,9-3.77"></path>
							<path class="cls-1" d="M350,177.71l-.43.14c-.1-.28-.21-.57-.32-.82s-.07-.18-.1-.28l.85,1"></path>
							<path class="cls-1" d="M508.81,163.1c-4.79-2.79-10-2.77-11.62,0s.92,7.34,5.71,10.12,8.05,1.65,9.68-1.16,1-6.2-3.77-9"></path>
							<path class="cls-2" d="M385.16,260.54c0-6.18,5.33-14.53,7.31-17a.93.93,0,0,1,1.47,0c2,2.51,7.32,10.86,7.32,17,0,7.59-4.5,9.62-8.05,9.62-3.39,0-8-2-8-9.62"></path>
							<path class="cls-1" d="M443,177.5c-4.25-2.9-6.33-7.27-4.63-9.76s6.52-2.16,10.78.74,4.59,6.1,2.9,8.59-4.8,3.33-9.05.43"></path>
							<path class="cls-1" d="M435.31,185.22c-2.9-4.25-7.27-6.32-9.77-4.62s-2.15,6.52.75,10.77,6.09,4.6,8.58,2.9,3.34-4.79.44-9.05"></path>
							<path class="cls-2" d="M401.25,9.62c0,6.18-5.32,14.53-7.31,17a.92.92,0,0,1-1.46,0c-2-2.51-7.32-10.86-7.32-17,0-7.59,4.49-9.62,8-9.62,3.39,0,8,2,8,9.62"></path>
							<path class="cls-1" d="M350.79,185.22c2.9-4.25,7.27-6.32,9.76-4.62s2.15,6.52-.75,10.77-6.09,4.6-8.58,2.9-3.33-4.79-.43-9.05"></path>
							<path class="cls-1" d="M343.06,177.5c4.26-2.9,6.33-7.27,4.63-9.76s-6.52-2.16-10.77.74-4.6,6.1-2.9,8.59,4.79,3.33,9,.43"></path>
							<path class="cls-1" d="M350.79,84.93c2.9,4.26,7.27,6.33,9.76,4.63s2.15-6.52-.75-10.78-6.09-4.59-8.58-2.9-3.33,4.8-.43,9.05"></path>
							<path class="cls-1" d="M343.06,92.65c4.26,2.91,6.33,7.28,4.63,9.77s-6.52,2.15-10.78-.75-4.59-6.09-2.89-8.58,4.79-3.34,9-.44"></path>
							<path class="cls-1" d="M435.63,84.93c-2.9,4.26-7.27,6.33-9.76,4.63s-2.15-6.52.75-10.78,6.09-4.59,8.58-2.9,3.33,4.8.43,9.05"></path>
							<path class="cls-2" d="M268.15,127c6.17,0,14.53,5.33,17,7.31a.93.93,0,0,1,0,1.47c-2.51,2-10.87,7.31-17,7.31-7.59,0-9.62-4.49-9.62-8,0-3.39,2-8.05,9.62-8.05"></path>
							<path class="cls-2" d="M518.67,143.12c-6.18,0-14.53-5.32-17-7.31a.93.93,0,0,1,0-1.47c2.51-2,10.86-7.31,17-7.31,7.59,0,9.62,4.49,9.62,8.05,0,3.39-2,8-9.62,8"></path>
							<path class="cls-1" d="M443.36,92.65c-4.26,2.91-6.33,7.28-4.63,9.77s6.52,2.15,10.78-.75,4.59-6.09,2.89-8.58-4.79-3.34-9-.44"></path>
							<path class="cls-1" d="M487.73,116c-1.55-3-4.85-4.34-10-1.7-4.24,2.19-6.91,5.71-6.8,8.55a50.7,50.7,0,0,1-45.73-5.07,35,35,0,0,1,2.09,4.57,53.65,53.65,0,0,0,44.75,3.1c2.13,2,6.81,2,11.28-.35,5.09-2.64,5.9-6.12,4.36-9.1"></path>
							<path class="cls-1" d="M333.29,126.15a50.83,50.83,0,0,1-17.85-3.24c.12-2.84-2.55-6.37-6.8-8.57-5.1-2.64-8.41-1.28-9.95,1.7s-.74,6.46,4.36,9.1c4.46,2.31,9.14,2.38,11.27.35a53.56,53.56,0,0,0,44.75-3.12,32,32,0,0,1,2.07-4.53,50.52,50.52,0,0,1-27.85,8.31"></path>
							<path class="cls-1" d="M483.37,144.58c-4.69-2.42-9.58-2.35-11.54,0a53.63,53.63,0,0,0-44.54,3.26,29.49,29.49,0,0,1-2,4.5A50.76,50.76,0,0,1,471,147.28c.18,2.75,2.78,6,6.8,8.1,5.1,2.64,8.4,1.28,10-1.7s.73-6.46-4.36-9.1"></path>
							<path class="cls-1" d="M361.14,152.33a33.23,33.23,0,0,1-2.07-4.53,53.64,53.64,0,0,0-44.49-3.23c-2-2.34-6.84-2.41-11.53,0-5.1,2.64-5.9,6.12-4.36,9.1s4.85,4.34,9.95,1.7c4-2.08,6.63-5.36,6.79-8.12a50.83,50.83,0,0,1,45.71,5.07"></path>
							<path class="cls-3" d="M471.94,176.52c-21.92-26.72-40.08-22.61-53.59-19h0a33.64,33.64,0,0,0,0-45h0c13.5,3.66,31.66,7.75,53.57-19,2.73.66,6.61-1.48,9.34-5.4,3.17-4.55,2.29-7.89-.38-9.74s-6.1-1.52-9.26,3c-2.6,3.72-3.31,7.85-2,10.25-20.06,24.41-36.72,21.59-49.3,18.26h0l.07-.07.28-.28,37.57-37.6,4.8-4.81a1.49,1.49,0,0,0,.41-1,1.58,1.58,0,0,0-.41-1l-.2-.18a1.42,1.42,0,0,0-.83-.25,1.35,1.35,0,0,0-.92.35,1.53,1.53,0,0,0-.18.18L418.26,108c-3.33-12.58-6.18-29.25,18.26-49.32,2.4,1.28,6.52.57,10.25-2,4.55-3.17,4.88-6.6,3-9.27s-5.19-3.54-9.74-.37c-3.92,2.73-6.07,6.61-5.41,9.33C408,78.25,412,96.41,415.7,109.92h0a1,1,0,0,0-.16-.14l0,0a50.83,50.83,0,0,1-10-52.43c2.8-.06,6.16-2.68,8.29-6.8,2.63-5.09,1.28-8.4-1.7-9.94s-6.47-.74-9.1,4.36c-2.39,4.61-2.36,9.42-.13,11.44a53.55,53.55,0,0,0,5.23,48.39h0a33.55,33.55,0,0,0-29.92.14h0a53.62,53.62,0,0,0,5.52-48.53c2.23-2,2.26-6.84-.13-11.45-2.63-5.1-6.11-5.9-9.1-4.36s-4.33,4.85-1.7,9.94c2.13,4.11,5.48,6.72,8.27,6.8a50.86,50.86,0,0,1-10.2,52.42c3.64-13.48,7.56-31.57-19-53.38.66-2.72-1.49-6.6-5.41-9.33-4.55-3.17-7.89-2.29-9.74.37s-1.52,6.1,3,9.27c3.73,2.6,7.86,3.3,10.25,2,24.42,20,21.59,36.72,18.27,49.29h0l-.06-.06-.29-.28L330.21,70l-4.81-4.79a1.42,1.42,0,0,0-1-.41,1.53,1.53,0,0,0-1,.41l-.18.2a1.39,1.39,0,0,0-.25.82,1.32,1.32,0,0,0,.35.92,1.57,1.57,0,0,0,.18.19L366.12,110c-12.58,3.33-29.25,6.18-49.32-18.26,1.28-2.4.58-6.53-2-10.25-3.16-4.55-6.6-4.89-9.26-3s-3.55,5.19-.38,9.74c2.73,3.92,6.61,6.06,9.33,5.4,21.93,26.72,40.09,22.62,53.59,19a33.74,33.74,0,0,0,0,45c-13.5-3.66-31.67-7.76-53.59,19-2.72-.66-6.6,1.49-9.33,5.41-3.17,4.54-2.29,7.88.38,9.74s6.1,1.52,9.26-3c2.6-3.73,3.3-7.86,2-10.26,20.05-24.41,36.72-21.59,49.3-18.26h0l-.07.06-.28.29-37.58,37.59-4.79,4.82a1.4,1.4,0,0,0-.41,1,1.53,1.53,0,0,0,.41,1l.2.18a1.49,1.49,0,0,0,.82.25,1.41,1.41,0,0,0,.93-.35,1.66,1.66,0,0,0,.18-.19l42.65-42.65c3.33,12.58,6.18,29.25-18.26,49.33-2.4-1.29-6.52-.58-10.25,2-4.55,3.16-4.89,6.6-3,9.26s5.19,3.54,9.74.38c3.92-2.73,6.07-6.61,5.4-9.34,26.61-21.83,22.65-39.94,19-53.43A50.82,50.82,0,0,1,381,212.85c-2.79.09-6.13,2.71-8.25,6.8-2.63,5.1-1.28,8.4,1.7,9.95s6.47.73,9.1-4.36c2.39-4.62,2.36-9.45.11-11.46a53.63,53.63,0,0,0-5.45-48.51,33.63,33.63,0,0,0,30,0c-.87,1.27-1.67,2.6-2.42,4a53.73,53.73,0,0,0-3.16,44.67c-2.05,2.12-2,6.82.33,11.3,2.63,5.09,6.11,5.9,9.1,4.36s4.33-4.85,1.7-9.95c-2.19-4.23-5.69-6.89-8.52-6.8a50.76,50.76,0,0,1,5.06-45.62,51.37,51.37,0,0,1,5.34-6.78c-3.64,13.48-7.55,31.57,19,53.36-.66,2.73,1.49,6.61,5.41,9.34,4.55,3.16,7.89,2.28,9.74-.38s1.52-6.1-3-9.26c-3.73-2.6-7.85-3.31-10.25-2-24.42-20.06-21.59-36.72-18.27-49.3h0l.06.06.29.29,37.59,37.57,4.82,4.8a1.45,1.45,0,0,0,1,.41,1.58,1.58,0,0,0,1-.41l.18-.21a1.44,1.44,0,0,0,.25-.82,1.38,1.38,0,0,0-.35-.92,1.11,1.11,0,0,0-.19-.18L420.3,160.13c12.57-3.33,29.25-6.18,49.32,18.25-1.29,2.41-.58,6.53,2,10.26,3.16,4.55,6.6,4.88,9.26,3s3.55-5.2.38-9.74c-2.73-3.92-6.61-6.07-9.34-5.41m-56.77-19.66-.08.08L415,157a31,31,0,0,1-42.84.73,0,0,0,0,0,0,0s0,0,0,0l-.13-.15,0,0h0a30.89,30.89,0,0,1-.68-44.27h0l.23-.23a30.84,30.84,0,0,1,41.91-1.35h0l.12.14,0,0a30.92,30.92,0,0,1,1.57,45.05"></path>
							<path class="cls-2" d="M298.87,218c4.36-4.37,14-6.51,17.21-6.88a.93.93,0,0,1,1,1c-.37,3.18-2.51,12.85-6.88,17.22-5.36,5.37-10,3.63-12.49,1.11s-4.25-7.12,1.12-12.49"></path>
							<path class="cls-2" d="M487.67,51.91c-4.37,4.37-14,6.51-17.22,6.88a.93.93,0,0,1-1-1c.38-3.18,2.51-12.85,6.88-17.21,5.37-5.37,10-3.63,12.49-1.12s4.26,7.13-1.11,12.49"></path>
							<path class="cls-2" d="M310.52,40.82c4.37,4.36,6.51,14,6.88,17.22a.92.92,0,0,1-1,1c-3.18-.37-12.85-2.51-17.22-6.88-5.37-5.36-3.63-10-1.11-12.48s7.12-4.26,12.48,1.11"></path>
							<path class="cls-2" d="M476.29,229.34c-4.36-4.37-6.51-14-6.88-17.22a.93.93,0,0,1,1-1c3.18.37,12.85,2.51,17.22,6.88,5.37,5.37,3.63,10,1.11,12.49s-7.12,4.26-12.49-1.11"></path>
						</g>
						<g id="logoText">
							<path class="cls-2" d="M46.85,298.09c-1.12.06-4.46.12-6.37.12s-5.75-.12-7.52-.12l-.08.78a5.4,5.4,0,0,1,2.38,1.9,8.65,8.65,0,0,1,1.31,5c0,3.87-1.84,9-5.39,16.64l-6.29,13.82h-.18c-2.5-6-5.45-12.64-8.32-19.25-1.25-2.83-2.56-5.7-3.67-8.38a19.31,19.31,0,0,1-1.7-5.78,5,5,0,0,1,3.59-4l-.06-.78c-2.42.06-5.64.12-7.46.12-2.69,0-6.23-.12-7-.12l-.08.84c2.44.8,4.65,3.75,6.23,7,2.42,5,7.07,15.74,11.08,25.1,2.15,5,3.85,9.3,5.55,14l.8-.06c.72-2.23,1.83-5.16,2.81-7.66l6.41-14.07c4.14-9.18,6.5-14.61,8.46-17.95A24.26,24.26,0,0,1,44.42,301a11.71,11.71,0,0,1,2.5-2.08Z"></path>
							<path class="cls-2" d="M66.5,335.29c-.33-3-.39-7.8-.39-16.78,0-7.13.06-12.37.66-14.6a6.59,6.59,0,0,1,4.59-5.11l-.08-.71c-2.36.06-5.31.18-7.93.18s-5.82-.18-7.73-.18l-.06.78a6.11,6.11,0,0,1,4.65,3.48c1.31,2.68,1.37,8,1.37,17.88s-.12,13.22-.38,15.66A9.12,9.12,0,0,1,59,341.25a7.8,7.8,0,0,1-3.19,2l.06.78c1.58-.06,5.16-.18,7.66-.18,2.3,0,5.31.12,7.21.18l.13-.78c-2.75-1.25-4-3.93-4.39-8"></path>
							<path class="cls-2" d="M117.33,332.61a27.25,27.25,0,0,1-4.71,6.23,14.87,14.87,0,0,1-7.6,3.66c-3.67,0-6-.2-7.66-1.51s-2.48-2.69-2.81-6.48-.33-8.25-.33-12.19v-4.79c0-6.29.06-10.74.51-13,.54-2.62,1.77-4.84,5-5.7l-.06-.71c-2,.06-5.82.18-8.38.18s-5.84-.18-7.6-.18l-.06.78a6.19,6.19,0,0,1,4.59,3.33c1.37,2.63,1.43,7.93,1.43,17.3v5.18c0,2.42-.06,6.29-.2,8.71-.19,3.15-.45,5-1.56,6.82a7.78,7.78,0,0,1-4,3.07l.06.78c1.56-.06,5-.12,7.46-.12,5.24,0,13.5.12,20.11.12,1.32,0,3.73,0,4.78-.12.65-3,1.19-7.07,1.84-11.21Z"></path>
							<path class="cls-2" d="M162.08,332.61a27.58,27.58,0,0,1-4.72,6.23,14.87,14.87,0,0,1-7.6,3.66c-3.66,0-6-.2-7.66-1.51s-2.48-2.69-2.81-6.48-.32-8.25-.32-12.19v-4.79c0-6.29.06-10.74.51-13,.53-2.62,1.76-4.84,5-5.7l-.06-.71c-2,.06-5.82.18-8.38.18s-5.84-.18-7.6-.18l-.07.78A6.22,6.22,0,0,1,133,302.2c1.38,2.63,1.44,7.93,1.44,17.3v5.18c0,2.42-.06,6.29-.21,8.71-.18,3.15-.45,5-1.55,6.82a7.92,7.92,0,0,1-4,3.07l.06.78c1.56-.06,5-.12,7.46-.12,5.24,0,13.5.12,20.12.12,1.31,0,3.73,0,4.77-.12.66-3,1.19-7.07,1.85-11.21Z"></path>
							<path class="cls-2" d="M210.69,336.28c-2.74-5.58-7.48-16.19-11.14-25-2-4.9-4-9.88-5.56-14.2l-.79.06c-.72,2.24-1.89,5.31-2.95,7.87L184,318.92c-3.81,8.5-6.44,14.67-8.67,18.52a17.23,17.23,0,0,1-2.87,4,9.82,9.82,0,0,1-2.44,1.84l.09.78c1.37-.06,3.79-.12,5.49-.12,2.56,0,6.1.12,8.32.12l.08-.78a5.81,5.81,0,0,1-2.63-1.7,6.71,6.71,0,0,1-1.45-4.71c0-2.56,1.25-6.23,2.77-9.83,2.41-.07,5.43-.07,8.76-.07,3.67,0,7.07,0,9.9.07.92,2.17,1.91,4.38,2.75,6.55a21.25,21.25,0,0,1,1.7,6c-.19,1.83-1.83,3.14-3.61,3.73l.08.78c2.75,0,4.78-.12,6.8-.12,3,0,6.68.12,7.6.12l.07-.84c-2.54-.86-4.45-3.67-6.09-6.94m-19.2-11.15c-2.8,0-6,0-8.05-.12.66-1.64,1.31-3.16,2.3-5.37l6.35-14.34h.18c2.56,6.27,5.31,12.7,8.26,19.65-2.75.18-5.88.18-9,.18"></path>
							<path class="cls-2" d="M292,338.24c-.72-2.35-1-7.41-1.25-13.5-.19-5.24-.33-9.89-.33-13.83v-1.76a17.06,17.06,0,0,1,1-6.74,7,7,0,0,1,4.14-3.61l-.14-.71c-1.17.12-3.08.18-4.51.18-1.91,0-4.47-.12-5.45-.12-.72,0-.9.12-1.17.65-1.9,4.27-4.91,11.8-7.66,19L270.37,334l-7.27-17.35c-3-7.15-6-14.55-7.93-18.34a2.43,2.43,0,0,0-1.17-.2c-.53,0-2.82.06-4.65.06-1.13,0-4.85-.06-5.63-.12l-.08.78a7.32,7.32,0,0,1,4.4,2.29,10.49,10.49,0,0,1,2.09,5.18,54.34,54.34,0,0,1,.33,6.74c0,4.53-.27,9.18-.53,13-.46,6.29-1.17,10.82-3.08,13.77a7.69,7.69,0,0,1-3.93,3.46l.06.78c1.45,0,4.73-.18,6.76-.18,2.3,0,6.62.18,8.71.18l.06-.78a7.69,7.69,0,0,1-4.71-3.67c-1.11-2-1.64-4.91-1.76-8.52-.09-1.23-.09-2.68-.09-3.79,0-5.9.27-13.44.8-22h.19c2.05,3.79,4.46,9.36,6.7,14.79,3.66,9,6.68,16.31,8.76,21.76h.87a46.92,46.92,0,0,0,2.35-5.39l6.8-18a124,124,0,0,1,6.68-15.26h.27c.33,2.42.53,7.54.65,11.66s.33,10.1.33,14.15,0,7.73-.84,10.16a6.56,6.56,0,0,1-4,4.06l.06.84c1.7,0,5.16-.18,7.39-.18,2,0,5.84.18,7,.18l.14-.84c-1.45-.59-3.15-1.84-4.13-5"></path>
							<path class="cls-2" d="M345.31,336.28c-2.74-5.58-7.45-16.19-11.12-25-2.05-4.9-4-9.88-5.57-14.2l-.8.06c-.72,2.24-1.89,5.31-2.93,7.87l-6.23,13.95c-3.81,8.5-6.43,14.67-8.65,18.52a18.16,18.16,0,0,1-2.88,4,10.36,10.36,0,0,1-2.42,1.84l.06.78c1.37-.06,3.79-.12,5.51-.12,2.54,0,6.09.12,8.32.12l.06-.78a5.79,5.79,0,0,1-2.62-1.7,6.71,6.71,0,0,1-1.44-4.71c0-2.56,1.23-6.23,2.75-9.83,2.42-.07,5.43-.07,8.77-.07,3.66,0,7.09,0,9.89.07.92,2.17,1.91,4.38,2.75,6.55a21.71,21.71,0,0,1,1.72,6c-.21,1.83-1.84,3.14-3.61,3.73l.06.78c2.75,0,4.78-.12,6.81-.12,3,0,6.7.12,7.6.12l.06-.84c-2.54-.86-4.45-3.67-6.09-6.94m-19.19-11.15c-2.81,0-6,0-8.05-.12.65-1.64,1.31-3.16,2.29-5.37l6.35-14.34h.21c2.54,6.27,5.3,12.7,8.25,19.65-2.76.18-5.9.18-9.05.18"></path>
							<path class="cls-2" d="M405.46,343a7.69,7.69,0,0,1-1.24.14,26.16,26.16,0,0,1-9.12-6.43,84.29,84.29,0,0,1-10.68-14.94c4.92-2,9.51-5.88,9.51-12.17a9.9,9.9,0,0,0-4.47-8.79c-3.19-2.23-7.06-2.74-12.37-2.74-3.54,0-7.79.18-9.83.18-1.38,0-6.81-.06-8.71-.18l-.06.77a8.89,8.89,0,0,1,2.8,1,6.36,6.36,0,0,1,2.5,2.74c.72,1.52,1,3.49,1.19,6.62s.19,7.34.19,12.13v2.81c0,2.43-.07,6.49-.19,8.58-.2,3.54-.41,5.57-1.58,7.48a7.4,7.4,0,0,1-4,3.07l.06.78c1.7-.06,5.31-.18,7.93-.18s7.21.18,9.1.18l.08-.78a8.73,8.73,0,0,1-3.81-2c-1.5-1.37-2.48-3.07-2.75-6.8-.26-3.21-.33-6.94-.33-10.43v-1.9c2.48.08,6.35.27,9.49.27,3.28,6.16,6.56,11.74,10.61,16.3a18.94,18.94,0,0,0,4.73,4.08,12.4,12.4,0,0,0,6.36,1.64,19.31,19.31,0,0,0,4.77-.66Zm-25-22.13a61.76,61.76,0,0,1-10.8-.92v-1.38c0-7.08.13-13.29.6-18.6a37.2,37.2,0,0,1,5.37-.47c4,.27,7.06,1.11,9.56,3.4a10.17,10.17,0,0,1,3.34,7.87c0,4.14-1.25,7.6-4.85,10a24.63,24.63,0,0,1-3.22.14"></path>
							<path class="cls-2" d="M422,335.29c-.33-3-.41-7.8-.41-16.78,0-7.13.08-12.37.65-14.6a6.64,6.64,0,0,1,4.59-5.11l-.06-.71c-2.35.06-5.3.18-7.93.18s-5.84-.18-7.72-.18l-.06.78a6.08,6.08,0,0,1,4.63,3.48c1.33,2.68,1.39,8,1.39,17.88s-.14,13.22-.39,15.66a9.05,9.05,0,0,1-2.17,5.36,8,8,0,0,1-3.22,2l.09.78c1.55-.06,5.16-.18,7.66-.18,2.27,0,5.3.12,7.19.18l.14-.78c-2.76-1.25-4-3.93-4.38-8"></path>
							<path class="cls-2" d="M484.73,298.09c-1.45.06-5,.18-7.33.18s-5.84-.18-7.6-.18l-.06.78a8.13,8.13,0,0,1,5.48,5c1,2.24,1.32,6.5,1.44,10.76.08,2.42.14,4.77.14,9,0,4.45,0,7.46-.26,11.21-9.76-12.19-19.14-24-28.36-36.57a4.41,4.41,0,0,0-1.31-.18c-.8,0-2.38.12-4,.12-2,0-3.6-.06-5-.12l-.08.78a8.65,8.65,0,0,1,4.52,2.56c1.7,1.82,2.83,5.24,2.83,10.73,0,7.09,0,12.64-.35,18.34s-1,7.93-2.21,9.77a9.14,9.14,0,0,1-3.48,3l.08.78c1.17,0,4.63-.18,6.92-.18,2.77,0,7.28.18,8.32.18l.08-.78a7.82,7.82,0,0,1-4.46-3c-1.56-2.09-2.48-4.86-2.75-13.62-.12-4.06-.12-7.73-.12-10.88,0-2.95,0-6.42.12-10.23h.12c8.47,10.49,21.37,26.92,30.61,39.59l1.11-.21c-.2-3.15-.33-6.82-.33-10.41v-9.65c0-4.83.06-7.84.13-10.59a56.31,56.31,0,0,1,.53-7.09,15.81,15.81,0,0,1,1.57-4.71,8.77,8.77,0,0,1,3.73-3.6Z"></path>
							<path class="cls-2" d="M532.75,336.28c-2.76-5.58-7.47-16.19-11.14-25-2-4.9-4-9.88-5.57-14.2l-.78.06c-.72,2.24-1.91,5.31-3,7.87l-6.23,13.95c-3.79,8.5-6.41,14.67-8.65,18.52a18.49,18.49,0,0,1-2.87,4,10.38,10.38,0,0,1-2.43,1.84l.06.78c1.39-.06,3.81-.12,5.51-.12,2.56,0,6.08.12,8.32.12l.06-.78a6,6,0,0,1-2.62-1.7,6.81,6.81,0,0,1-1.44-4.71c0-2.56,1.25-6.23,2.75-9.83,2.44-.07,5.45-.07,8.79-.07,3.66,0,7.06,0,9.89.07.9,2.17,1.89,4.38,2.75,6.55a20.91,20.91,0,0,1,1.7,6c-.21,1.83-1.83,3.14-3.61,3.73l.06.78c2.77,0,4.8-.12,6.83-.12,3,0,6.67.12,7.6.12l.06-.84c-2.56-.86-4.45-3.67-6.09-6.94m-19.19-11.15c-2.83,0-6,0-8-.12.63-1.64,1.29-3.16,2.27-5.37l6.37-14.34h.19c2.56,6.27,5.3,12.7,8.25,19.65-2.74.18-5.9.18-9,.18"></path>
							<path class="cls-2" d="M607.1,332.55a23.51,23.51,0,0,1-6.68,7.78,17.81,17.81,0,0,1-7.54,2.89c-4.32-.8-9-2.56-12.37-5.9-3.87-3.73-6.68-9.18-6.68-16.9a22.35,22.35,0,0,1,5.23-15,19.66,19.66,0,0,1,12-6.62,16,16,0,0,1,9.69,5.11,28.5,28.5,0,0,1,5.25,7.74l.84-.14c-.66-4.78-.66-8.06-1.17-11.13A30.42,30.42,0,0,0,592,297.43a24.12,24.12,0,0,0-17.08,6.95c-4.14,4.26-6.56,10-6.56,17.29,0,6.47,2.42,12.52,6.49,16.43a24.63,24.63,0,0,0,16.7,6.62A37.61,37.61,0,0,0,606.24,342c.6-2.42,1.19-7,1.72-9.24Z"></path>
							<path class="cls-2" d="M659.45,336.28c-2.75-5.58-7.48-16.19-11.15-25-2-4.9-4-9.88-5.55-14.2l-.8.06c-.72,2.24-1.88,5.31-3,7.87l-6.21,13.95c-3.81,8.5-6.43,14.67-8.64,18.52a18.49,18.49,0,0,1-2.89,4,10.15,10.15,0,0,1-2.42,1.84l.06.78c1.38-.06,3.79-.12,5.49-.12,2.56,0,6.11.12,8.32.12l.08-.78a5.79,5.79,0,0,1-2.62-1.7,6.71,6.71,0,0,1-1.45-4.71c0-2.56,1.25-6.23,2.76-9.83,2.42-.07,5.43-.07,8.77-.07,3.67,0,7.07,0,9.9.07.92,2.17,1.9,4.38,2.74,6.55a20.91,20.91,0,0,1,1.7,6c-.18,1.83-1.82,3.14-3.6,3.73l.08.78c2.74,0,4.77-.12,6.8-.12,3,0,6.68.12,7.6.12l.06-.84c-2.54-.86-4.44-3.67-6.08-6.94m-19.2-11.15c-2.81,0-6,0-8-.12.65-1.64,1.31-3.16,2.29-5.37l6.35-14.34H641c2.56,6.27,5.31,12.7,8.26,19.65-2.75.18-5.88.18-9,.18"></path>
							<path class="cls-2" d="M702.43,301.16c-2.69-2.09-6.56-3.07-11.86-3.07-3.48,0-7.07.18-9.63.18s-6.89-.12-8.26-.18l-.06.78a7,7,0,0,1,4.51,2.49c1.45,1.83,1.84,4.9,2,7.61.15,2.47.21,6.86.21,11.26s0,8.44-.21,12.44c-.18,4.65-.65,6.29-1.88,8a7.48,7.48,0,0,1-3.67,2.62l.06.78c1.23-.06,5.11-.18,8-.18,2.63,0,8,.18,9,.18l.06-.78a7.94,7.94,0,0,1-5.16-3.54c-1.13-1.7-1.38-4.18-1.52-6.68-.12-2-.18-4.92-.18-8.38v-5.57c0-6,.12-14.73.57-19.12a42.65,42.65,0,0,1,4.65-.47,14.17,14.17,0,0,1,8.73,3.48,10.05,10.05,0,0,1,3.28,8,10.34,10.34,0,0,1-2.77,7.52,14.27,14.27,0,0,1-7.6,3.87l.2.78c4.59-.51,8.26-1.76,11.07-4a11.29,11.29,0,0,0,4.46-9.43,10.17,10.17,0,0,0-4-8.58"></path>
							<path class="cls-2" d="M765.06,343a8,8,0,0,1-1.25.14,26.16,26.16,0,0,1-9.12-6.43A84.73,84.73,0,0,1,744,321.79c4.91-2,9.51-5.88,9.51-12.17a9.9,9.9,0,0,0-4.47-8.79c-3.2-2.23-7.07-2.74-12.37-2.74-3.55,0-7.79.18-9.84.18-1.37,0-6.8-.06-8.71-.18l-.06.77a9,9,0,0,1,2.81,1,6.48,6.48,0,0,1,2.5,2.74c.71,1.52,1,3.49,1.19,6.62s.18,7.34.18,12.13v2.81c0,2.43-.06,6.49-.18,8.58-.21,3.54-.41,5.57-1.58,7.48a7.46,7.46,0,0,1-4,3.07l.06.78c1.7-.06,5.31-.18,7.93-.18s7.22.18,9.1.18l.08-.78a8.73,8.73,0,0,1-3.81-2c-1.49-1.37-2.48-3.07-2.74-6.8-.27-3.21-.33-6.94-.33-10.43v-1.9c2.48.08,6.35.27,9.48.27,3.28,6.16,6.56,11.74,10.62,16.3a18.94,18.94,0,0,0,4.73,4.08,12.36,12.36,0,0,0,6.35,1.64,19.24,19.24,0,0,0,4.77-.66Zm-25-22.13a61.67,61.67,0,0,1-10.8-.92v-1.38c0-7.08.12-13.29.59-18.6a37.33,37.33,0,0,1,5.37-.47c4,.27,7.07,1.11,9.57,3.4a10.17,10.17,0,0,1,3.34,7.87c0,4.14-1.25,7.6-4.86,10a24.48,24.48,0,0,1-3.21.14"></path>
							<path class="cls-2" d="M781.57,335.29c-.32-3-.41-7.8-.41-16.78,0-7.13.09-12.37.66-14.6a6.62,6.62,0,0,1,4.59-5.11l-.06-.71c-2.36.06-5.31.18-7.93.18s-5.84-.18-7.73-.18l-.06.78a6.14,6.14,0,0,1,4.65,3.48c1.31,2.68,1.38,8,1.38,17.88s-.15,13.22-.4,15.66a9,9,0,0,1-2.16,5.36,8,8,0,0,1-3.22,2l.08.78c1.56-.06,5.16-.18,7.66-.18,2.3,0,5.31.12,7.19.18l.15-.78c-2.77-1.25-4-3.93-4.39-8"></path>
						</g>
						<g id="flower">
							<path class="cls-1" d="M162.7,250.35c-2.79-4.78-2.77-10,0-11.62s7.34.93,10.12,5.71,1.65,8.05-1.16,9.68-6.2,1-9-3.77"></path>
							<path class="cls-1" d="M250,163.1c-4.79-2.79-10-2.77-11.63,0s.93,7.34,5.71,10.12,8.05,1.65,9.68-1.16,1-6.2-3.76-9"></path>
							<path class="cls-1" d="M250,107.05c-4.79,2.79-10,2.78-11.63,0s.93-7.34,5.71-10.13,8.05-1.64,9.68,1.16,1,6.21-3.76,9"></path>
							<path class="cls-1" d="M162.7,19.8c-2.79,4.79-2.77,10,0,11.63s7.34-.93,10.12-5.72,1.65-8-1.16-9.68-6.2-1-9,3.77"></path>
							<path class="cls-1" d="M106.65,19.8c2.79,4.79,2.78,10,0,11.63s-7.34-.93-10.13-5.72-1.64-8,1.16-9.68,6.21-1,9,3.77"></path>
							<path class="cls-1" d="M19.4,107.05c4.79,2.79,10,2.78,11.63,0s-.93-7.34-5.72-10.13-8-1.64-9.68,1.16-1,6.21,3.77,9"></path>
							<path class="cls-1" d="M19.4,163.1c4.79-2.79,10-2.77,11.63,0s-.93,7.34-5.72,10.12-8,1.65-9.68-1.16-1-6.2,3.77-9"></path>
							<path class="cls-1" d="M106.65,250.35c2.79-4.78,2.78-10,0-11.62s-7.34.93-10.13,5.71-1.64,8.05,1.16,9.68,6.21,1,9-3.77"></path>
							<path class="cls-1" d="M91.42,177.71l-.43.14c-.1-.28-.21-.57-.32-.82s-.07-.18-.1-.28l.85,1"></path>
							<path class="cls-1" d="M250.28,163.1c-4.79-2.79-10-2.77-11.62,0s.92,7.34,5.71,10.12,8,1.65,9.68-1.16,1-6.2-3.77-9"></path>
							<path style="fill: #152c47" class="cls-2" d="M126.63,260.54c0-6.18,5.33-14.53,7.31-17a.93.93,0,0,1,1.47,0c2,2.51,7.31,10.86,7.31,17,0,7.59-4.49,9.62-8,9.62-3.39,0-8.05-2-8.05-9.62"></path>
							<path class="cls-1" d="M184.5,177.5c-4.25-2.9-6.33-7.27-4.63-9.76s6.52-2.16,10.78.74,4.59,6.1,2.9,8.59-4.8,3.33-9.05.43"></path>
							<path class="cls-1" d="M176.78,185.22c-2.9-4.25-7.27-6.32-9.77-4.62s-2.15,6.52.75,10.77,6.09,4.6,8.58,2.9,3.34-4.79.44-9.05"></path>
							<path style="fill: #152c47" class="cls-2" d="M142.72,9.62c0,6.18-5.32,14.53-7.31,17a.92.92,0,0,1-1.46,0c-2-2.51-7.32-10.86-7.32-17C126.63,2,131.12,0,134.68,0c3.39,0,8,2,8,9.62"></path>
							<path class="cls-1" d="M92.26,185.22c2.9-4.25,7.27-6.32,9.76-4.62s2.15,6.52-.75,10.77-6.09,4.6-8.58,2.9-3.34-4.79-.43-9.05"></path>
							<path class="cls-1" d="M84.53,177.5c4.26-2.9,6.33-7.27,4.63-9.76s-6.52-2.16-10.78.74-4.59,6.1-2.89,8.59,4.79,3.33,9,.43"></path>
							<path class="cls-1" d="M92.26,84.93c2.9,4.26,7.27,6.33,9.76,4.63s2.15-6.52-.75-10.78-6.09-4.59-8.58-2.9-3.34,4.8-.43,9.05"></path>
							<path class="cls-1" d="M84.53,92.65c4.26,2.91,6.33,7.28,4.63,9.77s-6.52,2.15-10.78-.75-4.59-6.09-2.89-8.58,4.79-3.34,9-.44"></path>
							<path class="cls-1" d="M177.1,84.93c-2.9,4.26-7.27,6.33-9.76,4.63s-2.16-6.52.75-10.78,6.09-4.59,8.58-2.9,3.33,4.8.43,9.05"></path>
							<path style="fill: #152c47" class="cls-2" d="M9.62,127c6.17,0,14.53,5.33,17,7.31a.93.93,0,0,1,0,1.47c-2.51,2-10.87,7.31-17,7.31-7.59,0-9.62-4.49-9.62-8C0,131.69,2,127,9.62,127"></path>
							<path style="fill: #152c47" class="cls-2" d="M260.14,143.12c-6.18,0-14.53-5.32-17-7.31a.93.93,0,0,1,0-1.47c2.51-2,10.86-7.31,17-7.31,7.59,0,9.62,4.49,9.62,8.05,0,3.39-2,8-9.62,8"></path>
							<path class="cls-1" d="M184.83,92.65c-4.26,2.91-6.33,7.28-4.63,9.77s6.52,2.15,10.78-.75,4.59-6.09,2.89-8.58-4.79-3.34-9-.44"></path>
							<path class="cls-1" d="M229.2,116c-1.55-3-4.85-4.34-9.95-1.7-4.24,2.19-6.91,5.71-6.8,8.55a50.7,50.7,0,0,1-45.73-5.07,35,35,0,0,1,2.09,4.57,53.65,53.65,0,0,0,44.75,3.1c2.13,2,6.81,2,11.28-.35,5.09-2.64,5.9-6.12,4.36-9.1"></path>
							<path class="cls-1" d="M74.76,126.15a50.83,50.83,0,0,1-17.85-3.24c.12-2.84-2.55-6.37-6.8-8.57-5.1-2.64-8.41-1.28-10,1.7s-.74,6.46,4.36,9.1c4.46,2.31,9.14,2.38,11.27.35a53.56,53.56,0,0,0,44.75-3.12,32,32,0,0,1,2.07-4.53,50.52,50.52,0,0,1-27.85,8.31"></path>
							<path class="cls-1" d="M224.84,144.58c-4.69-2.42-9.58-2.35-11.54,0a53.63,53.63,0,0,0-44.54,3.26,29.49,29.49,0,0,1-2,4.5,50.76,50.76,0,0,1,45.73-5.05c.18,2.75,2.78,6,6.8,8.1,5.1,2.64,8.4,1.28,9.95-1.7s.73-6.46-4.36-9.1"></path>
							<path class="cls-1" d="M102.61,152.33a33.23,33.23,0,0,1-2.07-4.53,53.64,53.64,0,0,0-44.49-3.23c-2-2.34-6.85-2.41-11.53,0-5.1,2.64-5.9,6.12-4.36,9.1s4.85,4.34,10,1.7c4-2.08,6.63-5.36,6.79-8.12a50.83,50.83,0,0,1,45.71,5.07"></path>
							<path class="cls-3" d="M213.41,176.52c-21.92-26.72-40.08-22.61-53.59-19h0a33.64,33.64,0,0,0,0-45h0c13.5,3.66,31.66,7.75,53.57-19,2.73.66,6.61-1.48,9.34-5.4,3.16-4.55,2.29-7.89-.38-9.74s-6.1-1.52-9.26,3c-2.6,3.72-3.31,7.85-2,10.25C191,116.18,174.37,113.36,161.79,110h0l.07-.07.28-.28,37.57-37.6,4.8-4.81a1.49,1.49,0,0,0,.41-1,1.58,1.58,0,0,0-.41-1l-.21-.18a1.37,1.37,0,0,0-.82-.25,1.35,1.35,0,0,0-.92.35,1.53,1.53,0,0,0-.18.18L159.73,108C156.4,95.41,153.55,78.74,178,58.67c2.4,1.28,6.52.57,10.25-2,4.55-3.17,4.88-6.6,3-9.27s-5.19-3.54-9.74-.37c-3.92,2.73-6.07,6.61-5.41,9.33-26.7,21.91-22.61,40.07-19,53.58h0l-.16-.14,0,0a50.83,50.83,0,0,1-10-52.43c2.79-.06,6.16-2.68,8.29-6.8,2.63-5.09,1.28-8.4-1.71-9.94s-6.46-.74-9.09,4.36c-2.39,4.61-2.36,9.42-.13,11.44a53.55,53.55,0,0,0,5.23,48.39h0a33.55,33.55,0,0,0-29.92.14h0a53.57,53.57,0,0,0,5.51-48.53c2.24-2,2.27-6.84-.12-11.45-2.63-5.1-6.11-5.9-9.1-4.36s-4.33,4.85-1.7,9.94c2.13,4.11,5.48,6.72,8.27,6.8a50.84,50.84,0,0,1-10.21,52.42c3.65-13.48,7.57-31.57-19-53.38.67-2.72-1.48-6.6-5.4-9.33-4.55-3.17-7.89-2.29-9.74.37s-1.52,6.1,3,9.27c3.73,2.6,7.86,3.3,10.25,2,24.42,20,21.59,36.72,18.26,49.29h0l-.06-.06-.29-.28L71.68,70l-4.81-4.79a1.44,1.44,0,0,0-1-.41,1.53,1.53,0,0,0-1,.41l-.18.2a1.39,1.39,0,0,0-.25.82,1.32,1.32,0,0,0,.35.92,1.57,1.57,0,0,0,.18.19L107.59,110C95,113.36,78.34,116.21,58.27,91.77c1.28-2.4.58-6.53-2-10.25-3.16-4.55-6.6-4.89-9.26-3s-3.55,5.19-.38,9.74c2.73,3.92,6.61,6.06,9.33,5.4,21.92,26.72,40.09,22.62,53.59,19a33.74,33.74,0,0,0,0,45c-13.5-3.66-31.67-7.76-53.59,19-2.72-.66-6.6,1.49-9.33,5.41-3.17,4.54-2.29,7.88.38,9.74s6.1,1.52,9.26-3c2.6-3.73,3.3-7.86,2-10.26,20-24.41,36.72-21.59,49.3-18.26h0l-.07.06-.28.29L69.64,198.07l-4.79,4.82a1.4,1.4,0,0,0-.41,1,1.53,1.53,0,0,0,.41,1l.2.18a1.49,1.49,0,0,0,.82.25,1.41,1.41,0,0,0,.93-.35,1.66,1.66,0,0,0,.18-.19l42.65-42.65c3.33,12.58,6.18,29.25-18.26,49.33-2.4-1.29-6.52-.58-10.25,2-4.55,3.16-4.89,6.6-3,9.26s5.19,3.54,9.74.38c3.92-2.73,6.07-6.61,5.4-9.34,26.61-21.83,22.65-39.94,19-53.43a50.82,50.82,0,0,1,10.2,52.47c-2.79.09-6.13,2.71-8.25,6.8-2.63,5.1-1.28,8.4,1.7,9.95s6.47.73,9.1-4.36c2.39-4.62,2.36-9.45.11-11.46a53.63,53.63,0,0,0-5.45-48.51,33.63,33.63,0,0,0,30,0c-.87,1.27-1.67,2.6-2.42,4a53.62,53.62,0,0,0-3.16,44.67c-2,2.12-2,6.82.33,11.3,2.63,5.09,6.11,5.9,9.09,4.36s4.34-4.85,1.71-9.95c-2.19-4.23-5.69-6.89-8.52-6.8a50.76,50.76,0,0,1,5.06-45.62,51.37,51.37,0,0,1,5.34-6.78c-3.64,13.48-7.55,31.57,19,53.36-.66,2.73,1.49,6.61,5.41,9.34,4.55,3.16,7.89,2.28,9.74-.38s1.52-6.1-3-9.26c-3.73-2.6-7.85-3.31-10.26-2-24.41-20.06-21.58-36.72-18.26-49.3h0l.06.06.29.29,37.59,37.57,4.82,4.8a1.45,1.45,0,0,0,1,.41,1.58,1.58,0,0,0,1-.41c.06-.06.12-.15.18-.21a1.44,1.44,0,0,0,.25-.82,1.38,1.38,0,0,0-.35-.92,1.66,1.66,0,0,0-.19-.18l-42.65-42.65c12.58-3.33,29.25-6.18,49.33,18.25-1.29,2.41-.58,6.53,2,10.26,3.16,4.55,6.6,4.88,9.26,3s3.54-5.2.38-9.74c-2.73-3.92-6.61-6.07-9.34-5.41m-56.77-19.66-.08.08-.08.08a31,31,0,0,1-42.84.73,0,0,0,0,0,0,0l0,0-.13-.15,0,0h0a30.89,30.89,0,0,1-.68-44.27h0L113,113a30.84,30.84,0,0,1,41.91-1.35h0l.12.14,0,0a30.92,30.92,0,0,1,1.57,45.05"></path>
							<path style="fill: #152c47" class="cls-2" d="M40.34,218c4.36-4.37,14-6.51,17.21-6.88a.93.93,0,0,1,1,1c-.37,3.18-2.51,12.85-6.88,17.22-5.36,5.37-10,3.63-12.49,1.11S35,223.33,40.34,218"></path>
							<path style="fill: #152c47" class="cls-2" d="M229.14,51.91c-4.37,4.37-14,6.51-17.22,6.88a.93.93,0,0,1-1-1c.38-3.18,2.51-12.85,6.88-17.21,5.37-5.37,10-3.63,12.49-1.12s4.25,7.13-1.11,12.49"></path>
							<path style="fill: #152c47" class="cls-2" d="M52,40.82c4.37,4.36,6.51,14,6.88,17.22a.92.92,0,0,1-1,1C54.66,58.7,45,56.56,40.62,52.19c-5.37-5.36-3.63-10-1.11-12.48S46.63,35.45,52,40.82"></path>
							<path style="fill: #152c47" class="cls-2" d="M217.76,229.34c-4.36-4.37-6.51-14-6.88-17.22a.93.93,0,0,1,1-1c3.18.37,12.85,2.51,17.22,6.88,5.37,5.37,3.63,10,1.11,12.49s-7.12,4.26-12.49-1.11"></path>
						</g>
						<g id="singleColorFlower">
							<path d="M162.7,250.35c-2.79-4.78-2.77-10,0-11.62s7.34.93,10.12,5.71,1.65,8.05-1.16,9.68-6.2,1-9-3.77"></path>
							<path d="M250,163.1c-4.79-2.79-10-2.77-11.63,0s.93,7.34,5.71,10.12,8.05,1.65,9.68-1.16,1-6.2-3.76-9"></path>
							<path d="M250,107.05c-4.79,2.79-10,2.78-11.63,0s.93-7.34,5.71-10.13,8.05-1.64,9.68,1.16,1,6.21-3.76,9"></path>
							<path d="M162.7,19.8c-2.79,4.79-2.77,10,0,11.63s7.34-.93,10.12-5.72,1.65-8-1.16-9.68-6.2-1-9,3.77"></path>
							<path d="M106.65,19.8c2.79,4.79,2.78,10,0,11.63s-7.34-.93-10.13-5.72-1.64-8,1.16-9.68,6.21-1,9,3.77"></path>
							<path d="M19.4,107.05c4.79,2.79,10,2.78,11.63,0s-.93-7.34-5.72-10.13-8-1.64-9.68,1.16-1,6.21,3.77,9"></path>
							<path d="M19.4,163.1c4.79-2.79,10-2.77,11.63,0s-.93,7.34-5.72,10.12-8,1.65-9.68-1.16-1-6.2,3.77-9"></path>
							<path d="M106.65,250.35c2.79-4.78,2.78-10,0-11.62s-7.34.93-10.13,5.71-1.64,8.05,1.16,9.68,6.21,1,9-3.77"></path>
							<path d="M91.42,177.71l-.43.14c-.1-.28-.21-.57-.32-.82s-.07-.18-.1-.28l.85,1"></path>
							<path d="M250.28,163.1c-4.79-2.79-10-2.77-11.62,0s.92,7.34,5.71,10.12,8,1.65,9.68-1.16,1-6.2-3.77-9"></path>
							<path d="M126.63,260.54c0-6.18,5.33-14.53,7.31-17a.93.93,0,0,1,1.47,0c2,2.51,7.31,10.86,7.31,17,0,7.59-4.49,9.62-8,9.62-3.39,0-8.05-2-8.05-9.62"></path>
							<path d="M184.5,177.5c-4.25-2.9-6.33-7.27-4.63-9.76s6.52-2.16,10.78.74,4.59,6.1,2.9,8.59-4.8,3.33-9.05.43"></path>
							<path d="M176.78,185.22c-2.9-4.25-7.27-6.32-9.77-4.62s-2.15,6.52.75,10.77,6.09,4.6,8.58,2.9,3.34-4.79.44-9.05"></path>
							<path d="M142.72,9.62c0,6.18-5.32,14.53-7.31,17a.92.92,0,0,1-1.46,0c-2-2.51-7.32-10.86-7.32-17C126.63,2,131.12,0,134.68,0c3.39,0,8,2,8,9.62"></path>
							<path d="M92.26,185.22c2.9-4.25,7.27-6.32,9.76-4.62s2.15,6.52-.75,10.77-6.09,4.6-8.58,2.9-3.34-4.79-.43-9.05"></path>
							<path d="M84.53,177.5c4.26-2.9,6.33-7.27,4.63-9.76s-6.52-2.16-10.78.74-4.59,6.1-2.89,8.59,4.79,3.33,9,.43"></path>
							<path d="M92.26,84.93c2.9,4.26,7.27,6.33,9.76,4.63s2.15-6.52-.75-10.78-6.09-4.59-8.58-2.9-3.34,4.8-.43,9.05"></path>
							<path d="M84.53,92.65c4.26,2.91,6.33,7.28,4.63,9.77s-6.52,2.15-10.78-.75-4.59-6.09-2.89-8.58,4.79-3.34,9-.44"></path>
							<path d="M177.1,84.93c-2.9,4.26-7.27,6.33-9.76,4.63s-2.16-6.52.75-10.78,6.09-4.59,8.58-2.9,3.33,4.8.43,9.05"></path>
							<path d="M9.62,127c6.17,0,14.53,5.33,17,7.31a.93.93,0,0,1,0,1.47c-2.51,2-10.87,7.31-17,7.31-7.59,0-9.62-4.49-9.62-8C0,131.69,2,127,9.62,127"></path>
							<path d="M260.14,143.12c-6.18,0-14.53-5.32-17-7.31a.93.93,0,0,1,0-1.47c2.51-2,10.86-7.31,17-7.31,7.59,0,9.62,4.49,9.62,8.05,0,3.39-2,8-9.62,8"></path>
							<path d="M184.83,92.65c-4.26,2.91-6.33,7.28-4.63,9.77s6.52,2.15,10.78-.75,4.59-6.09,2.89-8.58-4.79-3.34-9-.44"></path>
							<path d="M229.2,116c-1.55-3-4.85-4.34-9.95-1.7-4.24,2.19-6.91,5.71-6.8,8.55a50.7,50.7,0,0,1-45.73-5.07,35,35,0,0,1,2.09,4.57,53.65,53.65,0,0,0,44.75,3.1c2.13,2,6.81,2,11.28-.35,5.09-2.64,5.9-6.12,4.36-9.1"></path>
							<path d="M74.76,126.15a50.83,50.83,0,0,1-17.85-3.24c.12-2.84-2.55-6.37-6.8-8.57-5.1-2.64-8.41-1.28-10,1.7s-.74,6.46,4.36,9.1c4.46,2.31,9.14,2.38,11.27.35a53.56,53.56,0,0,0,44.75-3.12,32,32,0,0,1,2.07-4.53,50.52,50.52,0,0,1-27.85,8.31"></path>
							<path d="M224.84,144.58c-4.69-2.42-9.58-2.35-11.54,0a53.63,53.63,0,0,0-44.54,3.26,29.49,29.49,0,0,1-2,4.5,50.76,50.76,0,0,1,45.73-5.05c.18,2.75,2.78,6,6.8,8.1,5.1,2.64,8.4,1.28,9.95-1.7s.73-6.46-4.36-9.1"></path>
							<path d="M102.61,152.33a33.23,33.23,0,0,1-2.07-4.53,53.64,53.64,0,0,0-44.49-3.23c-2-2.34-6.85-2.41-11.53,0-5.1,2.64-5.9,6.12-4.36,9.1s4.85,4.34,10,1.7c4-2.08,6.63-5.36,6.79-8.12a50.83,50.83,0,0,1,45.71,5.07"></path>
							<path d="M213.41,176.52c-21.92-26.72-40.08-22.61-53.59-19h0a33.64,33.64,0,0,0,0-45h0c13.5,3.66,31.66,7.75,53.57-19,2.73.66,6.61-1.48,9.34-5.4,3.16-4.55,2.29-7.89-.38-9.74s-6.1-1.52-9.26,3c-2.6,3.72-3.31,7.85-2,10.25C191,116.18,174.37,113.36,161.79,110h0l.07-.07.28-.28,37.57-37.6,4.8-4.81a1.49,1.49,0,0,0,.41-1,1.58,1.58,0,0,0-.41-1l-.21-.18a1.37,1.37,0,0,0-.82-.25,1.35,1.35,0,0,0-.92.35,1.53,1.53,0,0,0-.18.18L159.73,108C156.4,95.41,153.55,78.74,178,58.67c2.4,1.28,6.52.57,10.25-2,4.55-3.17,4.88-6.6,3-9.27s-5.19-3.54-9.74-.37c-3.92,2.73-6.07,6.61-5.41,9.33-26.7,21.91-22.61,40.07-19,53.58h0l-.16-.14,0,0a50.83,50.83,0,0,1-10-52.43c2.79-.06,6.16-2.68,8.29-6.8,2.63-5.09,1.28-8.4-1.71-9.94s-6.46-.74-9.09,4.36c-2.39,4.61-2.36,9.42-.13,11.44a53.55,53.55,0,0,0,5.23,48.39h0a33.55,33.55,0,0,0-29.92.14h0a53.57,53.57,0,0,0,5.51-48.53c2.24-2,2.27-6.84-.12-11.45-2.63-5.1-6.11-5.9-9.1-4.36s-4.33,4.85-1.7,9.94c2.13,4.11,5.48,6.72,8.27,6.8a50.84,50.84,0,0,1-10.21,52.42c3.65-13.48,7.57-31.57-19-53.38.67-2.72-1.48-6.6-5.4-9.33-4.55-3.17-7.89-2.29-9.74.37s-1.52,6.1,3,9.27c3.73,2.6,7.86,3.3,10.25,2,24.42,20,21.59,36.72,18.26,49.29h0l-.06-.06-.29-.28L71.68,70l-4.81-4.79a1.44,1.44,0,0,0-1-.41,1.53,1.53,0,0,0-1,.41l-.18.2a1.39,1.39,0,0,0-.25.82,1.32,1.32,0,0,0,.35.92,1.57,1.57,0,0,0,.18.19L107.59,110C95,113.36,78.34,116.21,58.27,91.77c1.28-2.4.58-6.53-2-10.25-3.16-4.55-6.6-4.89-9.26-3s-3.55,5.19-.38,9.74c2.73,3.92,6.61,6.06,9.33,5.4,21.92,26.72,40.09,22.62,53.59,19a33.74,33.74,0,0,0,0,45c-13.5-3.66-31.67-7.76-53.59,19-2.72-.66-6.6,1.49-9.33,5.41-3.17,4.54-2.29,7.88.38,9.74s6.1,1.52,9.26-3c2.6-3.73,3.3-7.86,2-10.26,20-24.41,36.72-21.59,49.3-18.26h0l-.07.06-.28.29L69.64,198.07l-4.79,4.82a1.4,1.4,0,0,0-.41,1,1.53,1.53,0,0,0,.41,1l.2.18a1.49,1.49,0,0,0,.82.25,1.41,1.41,0,0,0,.93-.35,1.66,1.66,0,0,0,.18-.19l42.65-42.65c3.33,12.58,6.18,29.25-18.26,49.33-2.4-1.29-6.52-.58-10.25,2-4.55,3.16-4.89,6.6-3,9.26s5.19,3.54,9.74.38c3.92-2.73,6.07-6.61,5.4-9.34,26.61-21.83,22.65-39.94,19-53.43a50.82,50.82,0,0,1,10.2,52.47c-2.79.09-6.13,2.71-8.25,6.8-2.63,5.1-1.28,8.4,1.7,9.95s6.47.73,9.1-4.36c2.39-4.62,2.36-9.45.11-11.46a53.63,53.63,0,0,0-5.45-48.51,33.63,33.63,0,0,0,30,0c-.87,1.27-1.67,2.6-2.42,4a53.62,53.62,0,0,0-3.16,44.67c-2,2.12-2,6.82.33,11.3,2.63,5.09,6.11,5.9,9.09,4.36s4.34-4.85,1.71-9.95c-2.19-4.23-5.69-6.89-8.52-6.8a50.76,50.76,0,0,1,5.06-45.62,51.37,51.37,0,0,1,5.34-6.78c-3.64,13.48-7.55,31.57,19,53.36-.66,2.73,1.49,6.61,5.41,9.34,4.55,3.16,7.89,2.28,9.74-.38s1.52-6.1-3-9.26c-3.73-2.6-7.85-3.31-10.26-2-24.41-20.06-21.58-36.72-18.26-49.3h0l.06.06.29.29,37.59,37.57,4.82,4.8a1.45,1.45,0,0,0,1,.41,1.58,1.58,0,0,0,1-.41c.06-.06.12-.15.18-.21a1.44,1.44,0,0,0,.25-.82,1.38,1.38,0,0,0-.35-.92,1.66,1.66,0,0,0-.19-.18l-42.65-42.65c12.58-3.33,29.25-6.18,49.33,18.25-1.29,2.41-.58,6.53,2,10.26,3.16,4.55,6.6,4.88,9.26,3s3.54-5.2.38-9.74c-2.73-3.92-6.61-6.07-9.34-5.41m-56.77-19.66-.08.08-.08.08a31,31,0,0,1-42.84.73,0,0,0,0,0,0,0l0,0-.13-.15,0,0h0a30.89,30.89,0,0,1-.68-44.27h0L113,113a30.84,30.84,0,0,1,41.91-1.35h0l.12.14,0,0a30.92,30.92,0,0,1,1.57,45.05"></path>
							<path d="M40.34,218c4.36-4.37,14-6.51,17.21-6.88a.93.93,0,0,1,1,1c-.37,3.18-2.51,12.85-6.88,17.22-5.36,5.37-10,3.63-12.49,1.11S35,223.33,40.34,218"></path>
							<path d="M229.14,51.91c-4.37,4.37-14,6.51-17.22,6.88a.93.93,0,0,1-1-1c.38-3.18,2.51-12.85,6.88-17.21,5.37-5.37,10-3.63,12.49-1.12s4.25,7.13-1.11,12.49"></path>
							<path d="M52,40.82c4.37,4.36,6.51,14,6.88,17.22a.92.92,0,0,1-1,1C54.66,58.7,45,56.56,40.62,52.19c-5.37-5.36-3.63-10-1.11-12.48S46.63,35.45,52,40.82"></path>
							<path d="M217.76,229.34c-4.36-4.37-6.51-14-6.88-17.22a.93.93,0,0,1,1-1c3.18.37,12.85,2.51,17.22,6.88,5.37,5.37,3.63,10,1.11,12.49s-7.12,4.26-12.49-1.11"></path>
						</g>
					</defs>
					<use x="0" y="0" href="#flower"></use>					
				</svg>