<svg fill="#fff" version="1.1" xmlns="http://www.w3.org/2000/svg" xmlns:xlink="http://www.w3.org/1999/xlink" x="0px" y="0px" width="152.467px" height="33.721px" viewBox="0 0 152.467 33.721" enable-background="new 0 0 152.467 33.721" xml:space="preserve"> <path id="path12" d="M14.1,30.143c0.026,0,0.052,0,0.052-0.044V29.94c0-1.195,0-1.293-0.017-1.54 c-0.017-0.194-0.08-0.337-0.347-0.381c-0.061-0.01-0.175-0.019-0.273-0.027c-0.106,0-0.151-0.062-0.151-0.089 c0-0.053,0.036-0.088,0.16-0.088c0.469,0,1.24,0.026,1.284,0.026c0.035,0,1.027-0.026,1.372-0.026c0.141,0,0.159,0.035,0.159,0.088 c0,0.045-0.027,0.089-0.125,0.089c-0.149,0.018-0.159,0.018-0.247,0.036c-0.203,0.026-0.266,0.142-0.292,0.389 c-0.026,0.248-0.026,0.425-0.026,1.62v1.347c0,0.743,0.008,1.292,0.044,1.602c0.026,0.266,0.098,0.389,0.336,0.426 c0.106,0.017,0.257,0.017,0.328,0.025c0.105,0.009,0.15,0.044,0.15,0.098c0,0.063-0.08,0.08-0.177,0.08 c-0.539,0-1.417-0.027-1.541-0.027s-0.752,0.027-1.16,0.027c-0.15,0-0.168-0.044-0.168-0.09c0-0.034,0.044-0.088,0.142-0.088 c0.098-0.009,0.159-0.009,0.229-0.025c0.196-0.037,0.249-0.178,0.275-0.435c0.036-0.318,0.044-0.762,0.044-1.505v-0.584 c0-0.036-0.026-0.054-0.052-0.054h-2.337c-0.026,0-0.054,0.009-0.054,0.054v0.813c0,0.735,0.009,0.975,0.044,1.294 c0.028,0.229,0.124,0.379,0.364,0.406c0.115,0.026,0.238,0.026,0.3,0.035c0.106,0.009,0.151,0.044,0.151,0.098 c0,0.036-0.027,0.08-0.151,0.08c-0.442,0-1.488-0.027-1.531-0.027c-0.036,0-0.966,0.027-1.204,0.027 c-0.088,0-0.168-0.027-0.168-0.08c0-0.054,0.026-0.089,0.133-0.098c0.088-0.009,0.133-0.009,0.23-0.025 c0.203-0.027,0.274-0.222,0.292-0.461c0.035-0.328,0.044-0.823,0.044-1.566v-1.319c0-1.195-0.009-1.355-0.026-1.604 c-0.018-0.255-0.08-0.397-0.382-0.441c-0.114-0.019-0.142-0.019-0.238-0.027c-0.124-0.009-0.133-0.07-0.133-0.097 c0-0.054,0.079-0.08,0.167-0.08c0.469,0,1.177,0.026,1.354,0.026c0.328,0,0.939-0.026,1.284-0.026c0.151,0,0.168,0.044,0.168,0.097 c0,0.036-0.035,0.071-0.142,0.08c-0.105,0.009-0.177,0.018-0.248,0.036c-0.23,0.044-0.266,0.229-0.282,0.433 c-0.027,0.248-0.027,0.567-0.027,1.479v0.159c0,0.044,0.027,0.044,0.054,0.044H14.1"></path> <path id="path14" d="M21.253,30.746c0-1.603,1.098-3.037,3.427-3.037c2.018,0,3.284,1.355,3.284,2.859 c0,1.797-1.249,3.152-3.337,3.152C22.272,33.72,21.253,32.099,21.253,30.746 M26.266,30.923c0-1.168-0.426-2.7-1.859-2.7 c-0.682,0-1.452,0.346-1.452,2.143c0,1.416,0.567,2.824,1.886,2.824C25.327,33.189,26.266,33.003,26.266,30.923"></path> <path id="path16" d="M36.146,31.383c0,0.584,0.009,1.266,0.035,1.594c0.018,0.194,0.079,0.39,0.319,0.425 c0.098,0.018,0.187,0.026,0.319,0.036c0.142,0.018,0.176,0.053,0.176,0.106c0,0.044-0.044,0.069-0.185,0.069 c-0.55,0-1.382-0.025-1.497-0.025c-0.116,0-0.964,0.025-1.204,0.025c-0.132,0-0.187-0.017-0.187-0.079s0.07-0.089,0.16-0.097 c0.08-0.01,0.159-0.01,0.257-0.026c0.177-0.036,0.23-0.187,0.256-0.408c0.035-0.327,0.035-0.867,0.035-1.62v-2.947 c-0.301,0-0.813-0.009-1.203,0.018c-0.434,0.026-0.585,0.133-0.682,0.442c-0.019,0.053-0.036,0.115-0.063,0.168 c-0.017,0.054-0.044,0.114-0.096,0.114c-0.063,0-0.079-0.07-0.071-0.158c0.044-0.372,0.116-0.771,0.177-1.124 c0.018-0.116,0.062-0.169,0.106-0.169c0.044,0,0.107,0.035,0.23,0.053c0.115,0.027,0.603,0.063,0.903,0.063h3.542 c0.229,0,0.372-0.018,0.478-0.035c0.151-0.027,0.212-0.045,0.257-0.045c0.088,0,0.079,0.045,0.079,0.267 c0,0.088-0.053,0.885-0.061,1.071c-0.009,0.123-0.054,0.158-0.098,0.158c-0.044,0-0.08-0.044-0.089-0.133 c0-0.097-0.009-0.142-0.009-0.185c-0.026-0.24-0.124-0.408-0.541-0.452c-0.282-0.018-0.708-0.053-1.345-0.053V31.383"></path> <path id="path18" d="M43.698,30.037c0-1.274-0.008-1.416-0.026-1.664c-0.017-0.195-0.097-0.318-0.282-0.354 c-0.071-0.019-0.16-0.019-0.24-0.027c-0.116-0.009-0.133-0.053-0.133-0.097c0-0.045,0.044-0.08,0.168-0.08 c0.478,0,0.85,0.026,1.186,0.026c0.143,0,2.178-0.009,2.302-0.009c0.151,0,0.319-0.009,0.452-0.035 c0.052-0.019,0.096-0.026,0.124-0.026c0.044,0,0.062,0.035,0.054,0.079c-0.019,0.098-0.044,0.194-0.063,0.372 c-0.009,0.195-0.019,0.354-0.044,0.832c0,0.063-0.036,0.124-0.088,0.124c-0.044,0-0.08-0.035-0.089-0.106 C47,28.967,47,28.904,46.974,28.789c-0.044-0.177-0.143-0.283-0.522-0.318c-0.292-0.018-0.938-0.036-1.186-0.036 c-0.044,0-0.063,0.027-0.063,0.08v1.621c0,0.052,0.009,0.07,0.063,0.07c0.238,0,0.788,0,1.098-0.01 c0.434-0.017,0.539-0.044,0.636-0.194c0.037-0.07,0.072-0.098,0.107-0.098c0.053,0,0.063,0.054,0.063,0.098 c0,0.088-0.054,0.425-0.063,0.708c-0.01,0.168-0.019,0.575-0.019,0.664c0,0.106-0.025,0.134-0.079,0.134 c-0.044,0-0.079-0.036-0.088-0.125c-0.008-0.044-0.008-0.098-0.018-0.15c-0.043-0.238-0.131-0.381-0.548-0.407 c-0.247-0.018-0.851-0.025-1.098-0.025c-0.044,0-0.053,0.018-0.053,0.061v0.558c0,0.257-0.008,0.62,0,0.931 c0.009,0.54,0.107,0.663,1.009,0.663c0.204,0,0.513-0.009,0.734-0.088c0.223-0.09,0.312-0.274,0.382-0.629 c0.017-0.089,0.053-0.133,0.105-0.133c0.063,0,0.071,0.063,0.071,0.159c0,0.336-0.08,0.956-0.116,1.106 c-0.061,0.195-0.124,0.204-0.415,0.204c-1.187,0-1.753-0.045-2.594-0.045c-0.372,0-0.753,0.027-1.205,0.027 c-0.149,0-0.185-0.044-0.185-0.098c0-0.035,0.026-0.08,0.159-0.08c0.08-0.009,0.142-0.009,0.229-0.025 c0.257-0.045,0.284-0.346,0.311-0.886c0-0.293,0.008-0.717,0.008-1.143V30.037"></path> <path id="path20" d="M54.579,31.391c0,0.726-0.026,1.284,0.098,1.452c0.116,0.159,0.256,0.186,0.92,0.186 c0.443,0,0.655-0.009,0.877-0.088c0.221-0.089,0.389-0.274,0.486-0.7c0.019-0.088,0.044-0.158,0.115-0.158 c0.055,0,0.071,0.053,0.071,0.158c0,0.195-0.115,0.966-0.195,1.187c-0.07,0.204-0.124,0.204-0.415,0.204 c-1.195,0-1.93-0.044-2.771-0.044c-0.373,0-0.771,0.025-1.223,0.025c-0.123,0-0.185-0.025-0.185-0.098 c0-0.034,0.044-0.078,0.15-0.078c0.079-0.01,0.097-0.01,0.186-0.019c0.319-0.054,0.354-0.177,0.382-0.885 c0-0.301,0.007-0.726,0.007-1.151v-1.346c0-1.274-0.007-1.362-0.026-1.61c-0.019-0.213-0.088-0.337-0.275-0.39 c-0.07-0.019-0.177-0.036-0.292-0.045c-0.088-0.008-0.16-0.026-0.16-0.088c0-0.063,0.063-0.089,0.223-0.089 c0.478,0,0.867,0.026,1.203,0.026c0.044,0,1.072-0.026,1.355-0.026c0.141,0,0.176,0.035,0.176,0.08c0,0.07-0.07,0.097-0.142,0.097 c-0.089,0.009-0.124,0.009-0.239,0.036c-0.221,0.034-0.284,0.177-0.3,0.451c-0.019,0.247-0.028,0.363-0.028,1.656V31.391"></path> <path id="path22" d="M66.841,30.037c0-1.195-0.008-1.311-0.026-1.558c-0.017-0.327-0.159-0.435-0.327-0.451 c-0.142-0.027-0.213-0.027-0.274-0.036c-0.098,0-0.133-0.044-0.133-0.088c0-0.045,0.026-0.089,0.159-0.089 c0.319,0,1.132,0.026,1.231,0.026c0.131,0,0.965-0.026,1.362-0.026c0.797,0,1.346,0.08,1.665,0.257 c0.424,0.212,0.751,0.593,0.751,1.195c0,0.602-0.407,1.089-1.052,1.504c0.416,0.639,0.982,1.479,1.469,2.02 c0.408,0.47,0.592,0.584,0.841,0.62c0.079,0.017,0.149,0.017,0.212,0.025c0.079,0.009,0.124,0.054,0.124,0.098 c0,0.071-0.088,0.08-0.158,0.08h-0.69c-0.92,0-1.302-0.089-1.594-0.274c-0.23-0.15-0.479-0.461-0.762-0.921 c-0.373-0.62-0.505-0.877-0.655-1.106c-0.009-0.027-0.044-0.044-0.088-0.044l-0.531-0.01c-0.036,0-0.063,0.019-0.063,0.063v0.47 c0,0.574,0.018,0.947,0.036,1.177c0.017,0.195,0.062,0.354,0.301,0.416c0.105,0.035,0.266,0.044,0.362,0.053 c0.143,0.009,0.143,0.054,0.143,0.098s-0.036,0.08-0.151,0.08c-0.54,0-1.478-0.027-1.522-0.027c-0.09,0-0.922,0.027-1.179,0.027 c-0.133,0-0.159-0.044-0.159-0.098c0-0.045,0.054-0.08,0.141-0.08c0.072-0.009,0.186-0.009,0.274-0.025 c0.161-0.036,0.231-0.169,0.249-0.443c0.035-0.318,0.043-0.832,0.043-1.585V30.037z M68.302,30.515c0,0.053,0.036,0.089,0.071,0.115 c0.151,0.079,0.424,0.106,0.655,0.106c0.177,0,0.363-0.036,0.487-0.124c0.142-0.106,0.274-0.417,0.274-0.912 c0-1.089-0.743-1.345-1.142-1.345c-0.116,0-0.249,0-0.293,0.025c-0.035,0.019-0.053,0.027-0.053,0.089V30.515"></path> <path id="path24" d="M77.343,30.037c0-1.274-0.01-1.416-0.027-1.664c-0.018-0.195-0.098-0.318-0.283-0.354 c-0.072-0.019-0.16-0.019-0.238-0.027c-0.116-0.009-0.134-0.053-0.134-0.097c0-0.045,0.044-0.08,0.168-0.08 c0.479,0,0.851,0.026,1.188,0.026c0.141,0,2.177-0.009,2.3-0.009c0.152,0,0.32-0.009,0.453-0.035 c0.053-0.019,0.098-0.026,0.123-0.026c0.045,0,0.063,0.035,0.054,0.079c-0.019,0.098-0.044,0.194-0.063,0.372 c-0.007,0.195-0.016,0.354-0.044,0.832c0,0.063-0.033,0.124-0.087,0.124c-0.044,0-0.08-0.035-0.088-0.106 c-0.02-0.105-0.02-0.168-0.045-0.283c-0.045-0.177-0.142-0.283-0.521-0.318c-0.293-0.018-0.939-0.036-1.188-0.036 c-0.045,0-0.063,0.027-0.063,0.08v1.621c0,0.052,0.01,0.07,0.063,0.07c0.239,0,0.789,0,1.098-0.01 c0.435-0.017,0.54-0.044,0.637-0.194c0.036-0.07,0.07-0.098,0.107-0.098c0.054,0,0.062,0.054,0.062,0.098 c0,0.088-0.054,0.425-0.062,0.708c-0.009,0.168-0.018,0.575-0.018,0.664c0,0.106-0.026,0.134-0.08,0.134 c-0.044,0-0.08-0.036-0.088-0.125c-0.01-0.044-0.01-0.098-0.019-0.15c-0.044-0.238-0.133-0.381-0.548-0.407 c-0.249-0.018-0.851-0.025-1.098-0.025c-0.045,0-0.055,0.018-0.055,0.061v0.558c0,0.257-0.009,0.62,0,0.931 c0.01,0.54,0.106,0.663,1.01,0.663c0.203,0,0.514-0.009,0.734-0.088c0.222-0.09,0.311-0.274,0.382-0.629 c0.017-0.089,0.054-0.133,0.105-0.133c0.062,0,0.071,0.063,0.071,0.159c0,0.336-0.079,0.956-0.115,1.106 c-0.062,0.195-0.125,0.204-0.416,0.204c-1.186,0-1.754-0.045-2.594-0.045c-0.372,0-0.754,0.027-1.204,0.027 c-0.151,0-0.187-0.044-0.187-0.098c0-0.035,0.026-0.08,0.16-0.08c0.078-0.009,0.141-0.009,0.229-0.025 c0.257-0.045,0.284-0.346,0.31-0.886c0-0.293,0.01-0.717,0.01-1.143V30.037"></path> <path id="path26" d="M86.294,28.586c-0.133-0.337-0.221-0.505-0.426-0.55c-0.088-0.025-0.158-0.025-0.229-0.044 c-0.098-0.018-0.125-0.053-0.125-0.097c0-0.045,0.053-0.08,0.169-0.08c0.495,0,1.062,0.026,1.193,0.026 c0.231,0,0.833-0.026,1.268-0.026c0.105,0,0.168,0.035,0.168,0.089c0,0.053-0.054,0.088-0.133,0.088 c-0.079,0.01-0.097,0.01-0.194,0.026c-0.106,0.018-0.169,0.071-0.169,0.169c0,0.097,0.081,0.327,0.204,0.682 c0.07,0.221,0.637,1.868,0.921,2.576l1.372-3.347c0.078-0.194,0.141-0.266,0.222-0.266c0.114,0,0.159,0.133,0.273,0.363l1.575,3.275 c0.248-0.682,0.604-1.797,0.824-2.531c0.098-0.347,0.168-0.567,0.168-0.674c0-0.15-0.053-0.238-0.486-0.274 c-0.089,0-0.15-0.035-0.15-0.08c0-0.034,0.018-0.097,0.159-0.097c0.531,0,0.956,0.026,1.026,0.026c0.053,0,0.665-0.018,0.947-0.018 c0.098,0,0.168,0.018,0.168,0.08c0,0.044-0.025,0.079-0.131,0.088c-0.081,0.01-0.125,0.01-0.25,0.036 c-0.238,0.044-0.371,0.221-0.584,0.805c-0.336,0.895-1.072,2.851-1.691,4.383c-0.105,0.257-0.193,0.504-0.336,0.504 c-0.114,0-0.186-0.124-0.31-0.389l-1.575-3.144c-0.364,0.859-0.992,2.232-1.382,3.081c-0.132,0.275-0.247,0.451-0.372,0.451 c-0.105,0-0.167-0.124-0.326-0.521L86.294,28.586"></path> <path id="path28" d="M99.813,32.153c-0.053,0-0.078,0.053-0.087,0.079l-0.187,0.452 c-0.079,0.194-0.133,0.371-0.133,0.469c0,0.258,0.336,0.266,0.54,0.284c0.115,0.008,0.141,0.044,0.141,0.078 c0,0.063-0.045,0.098-0.149,0.098c-0.39,0-0.655-0.025-1.106-0.025c-0.089,0-0.602,0.025-0.982,0.025 c-0.125,0-0.16-0.035-0.16-0.088c0-0.054,0.045-0.088,0.143-0.088c0.379-0.044,0.583-0.15,0.813-0.674l2.126-4.532 c0.187-0.407,0.274-0.522,0.371-0.522c0.089,0,0.16,0.115,0.312,0.416c0.193,0.434,1.566,3.312,2.097,4.479 c0.274,0.566,0.415,0.771,0.717,0.814c0.071,0.009,0.134,0.019,0.177,0.019c0.098,0,0.15,0.044,0.15,0.088 c0,0.063-0.069,0.088-0.158,0.088c-0.895-0.008-1.814-0.017-2.285-0.025c-0.105,0-0.158-0.036-0.158-0.08 c0-0.053,0.053-0.07,0.105-0.089c0.071-0.025,0.15-0.035,0.106-0.132l-0.487-1.089c-0.008-0.027-0.045-0.045-0.07-0.045H99.813z M101.39,31.453c0.052,0,0.052-0.017,0.043-0.035l-0.698-1.584c-0.027-0.044-0.027-0.026-0.044,0.008l-0.655,1.576 c-0.009,0.027,0.007,0.035,0.026,0.035H101.39"></path> <path id="path30" d="M109.438,30.037c0-1.195-0.009-1.311-0.028-1.558c-0.016-0.327-0.158-0.435-0.326-0.451 c-0.142-0.027-0.213-0.027-0.274-0.036c-0.099,0-0.134-0.044-0.134-0.088c0-0.045,0.027-0.089,0.161-0.089 c0.317,0,1.132,0.026,1.229,0.026c0.133,0,0.966-0.026,1.364-0.026c0.797,0,1.345,0.08,1.663,0.257 c0.426,0.212,0.752,0.593,0.752,1.195c0,0.602-0.406,1.089-1.053,1.504c0.416,0.639,0.982,1.479,1.47,2.02 c0.407,0.47,0.593,0.584,0.841,0.62c0.08,0.017,0.15,0.017,0.213,0.025c0.078,0.009,0.123,0.054,0.123,0.098 c0,0.071-0.088,0.08-0.158,0.08h-0.69c-0.921,0-1.302-0.089-1.594-0.274c-0.23-0.15-0.479-0.461-0.762-0.921 c-0.371-0.62-0.504-0.877-0.655-1.106c-0.009-0.027-0.044-0.044-0.088-0.044l-0.531-0.01c-0.035,0-0.062,0.019-0.062,0.063v0.47 c0,0.574,0.017,0.947,0.034,1.177c0.018,0.195,0.063,0.354,0.302,0.416c0.105,0.035,0.266,0.044,0.362,0.053 c0.143,0.009,0.143,0.054,0.143,0.098s-0.036,0.08-0.151,0.08c-0.54,0-1.478-0.027-1.522-0.027c-0.089,0-0.922,0.027-1.178,0.027 c-0.133,0-0.158-0.044-0.158-0.098c0-0.045,0.053-0.08,0.141-0.08c0.071-0.009,0.186-0.009,0.273-0.025 c0.16-0.036,0.231-0.169,0.25-0.443c0.035-0.318,0.044-0.832,0.044-1.585V30.037z M110.898,30.515c0,0.053,0.034,0.089,0.07,0.115 c0.151,0.079,0.425,0.106,0.655,0.106c0.177,0,0.363-0.036,0.486-0.124c0.143-0.106,0.275-0.417,0.275-0.912 c0-1.089-0.744-1.345-1.143-1.345c-0.114,0-0.248,0-0.293,0.025c-0.035,0.019-0.052,0.027-0.052,0.089V30.515"></path> <path id="path32" d="M119.938,30.037c0-1.124,0-1.283-0.017-1.531c-0.019-0.212-0.037-0.451-0.39-0.486l-0.258-0.027 c-0.124-0.018-0.133-0.062-0.133-0.097c0-0.045,0.019-0.08,0.168-0.08c0.142,0,0.921,0.026,1.302,0.026 c0.266,0,0.584-0.018,1.301-0.018c1.443,0,2.436,0.221,3.125,0.895c0.408,0.398,0.762,1.036,0.762,1.947 c0,0.92-0.434,1.673-0.885,2.098c-0.398,0.382-1.082,0.913-2.718,0.913c-0.425,0-1.302-0.09-1.621-0.09 c-0.371,0-0.814,0.027-1.185,0.027c-0.133,0-0.159-0.044-0.159-0.089c0-0.044,0.052-0.089,0.14-0.089 c0.09,0,0.115-0.009,0.231-0.025c0.38-0.036,0.336-0.594,0.336-2.028V30.037z M121.433,30.904c0,0.814,0.01,1.294,0.02,1.444 c0.017,0.354,0.053,0.46,0.141,0.558c0.15,0.168,0.497,0.257,0.779,0.257c0.495,0,0.93-0.063,1.336-0.496 c0.382-0.381,0.487-1.116,0.487-1.735c0-0.699-0.194-1.275-0.53-1.753c-0.497-0.699-1.23-0.851-1.735-0.851 c-0.187,0-0.354,0.028-0.417,0.072c-0.07,0.062-0.08,0.097-0.08,1.531V30.904"></path> <path id="path34" d="M131.005,33.498c-0.142-0.053-0.178-0.167-0.178-0.309c0-0.664,0.018-0.947,0.045-1.187 c0.018-0.142,0.061-0.168,0.105-0.168s0.071,0.035,0.08,0.115c0.01,0.069,0.01,0.133,0.025,0.203c0.107,0.664,0.754,1.045,1.4,1.045 c0.717,0,0.937-0.336,0.937-0.646c0-0.31-0.104-0.558-0.776-1.01l-0.488-0.326c-0.947-0.656-1.203-1.17-1.203-1.878 c0.008-0.885,0.778-1.629,2.063-1.629c0.361,0,0.602,0.018,0.964,0.089c0.124,0.026,0.266,0.053,0.399,0.089 c0.08,0.017,0.097,0.044,0.097,0.114c-0.009,0.283-0.026,0.416-0.026,1.124c0,0.134-0.027,0.187-0.09,0.187 c-0.044,0-0.086-0.018-0.105-0.15c-0.009-0.088-0.034-0.257-0.123-0.425c-0.16-0.283-0.575-0.549-1.106-0.549 c-0.664,0-0.876,0.371-0.876,0.699c0,0.336,0.158,0.566,0.602,0.84l0.451,0.285c1.143,0.716,1.46,1.15,1.46,1.921 c0,0.611-0.274,1.141-0.884,1.479c-0.469,0.265-1.019,0.31-1.436,0.31C131.721,33.72,131.315,33.631,131.005,33.498"></path> <path id="path36" d="M148.813,5.406h0.359V2.151h0.012l1.291,3.255h0.339l1.288-3.255h0.01v3.255h0.357V1.64h-0.527 l-1.297,3.302l-1.303-3.302h-0.529V5.406"></path> <path id="path38" d="M145.036,4.168c-0.043,0.918,0.611,1.319,1.504,1.319c1.334,0,1.438-0.819,1.438-1.077 c0-0.617-0.442-0.85-0.975-0.992l-0.919-0.227c-0.305-0.074-0.568-0.223-0.568-0.576c0-0.559,0.451-0.749,0.945-0.749 c0.533,0,1.006,0.291,1.027,0.866h0.359c0.004-0.771-0.648-1.172-1.395-1.172c-1.06,0-1.297,0.692-1.297,1.061 c0,0.585,0.406,0.797,0.85,0.907l0.838,0.206c0.349,0.085,0.777,0.254,0.777,0.682c0,0.548-0.604,0.764-0.998,0.764 c-0.687,0-1.246-0.237-1.229-1.012H145.036"></path> <path id="path40" d="M0,18.423h4.037V0.005H0V18.423z M23.81,18.423h4.036v-5.524h3.066 c4.114,0,7.417-2.211,7.417-6.474V6.372c0-3.762-2.647-6.367-7.023-6.367H23.81V18.423z M27.846,9.293V3.662h3.118 c2.019,0,3.276,0.974,3.276,2.789v0.053c0,1.578-1.18,2.789-3.197,2.789H27.846"></path> <path id="path42" d="M56.749,7.332v0.047c0,1.447-1.073,2.347-2.802,2.347h-3.704V4.962h3.634 C55.702,4.962,56.749,5.826,56.749,7.332z M60.618,7.189V7.142c0-1.596-0.509-2.947-1.472-3.909c-1.136-1.133-2.851-1.73-4.961-1.73 H46.42v16.92h3.986v-5.309h2.623c1.17,1.745,2.342,3.49,3.513,5.237l0.051,0.071h4.672l-4.118-6.011 C59.386,11.506,60.618,9.655,60.618,7.189"></path> <path id="path44" d="M72.303,11.691h7.838V8.115h-7.838V5.078h8.907V1.503H68.341v16.92h12.987v-3.575h-9.025V11.691 "></path> <path id="path46" d="M89.003,18.423h3.986V12h7.932V8.352h-7.932V5.15h9.002V1.503H89.003V18.423"></path> <path id="path48" d="M140.324,7.332v0.047c0,1.447-1.073,2.347-2.803,2.347h-3.706V4.962h3.635 C139.277,4.962,140.324,5.826,140.324,7.332z M140.72,12.412c2.242-0.906,3.474-2.757,3.474-5.223V7.142 c0-1.596-0.508-2.947-1.472-3.909c-1.137-1.133-2.853-1.73-4.963-1.73h-7.764v16.92h3.986v-5.309h2.621 c1.172,1.745,2.343,3.49,3.515,5.236l0.048,0.072h4.675L140.72,12.412"></path> <path id="path50" d="M113.296,11.691h7.836V8.115h-7.836V5.078h8.906V1.503h-12.869v16.92h12.987v-3.575h-9.024 V11.691"></path> </svg>