<svg fill="#fff" version="1.1" xmlns="http://www.w3.org/2000/svg" xmlns:xlink="http://www.w3.org/1999/xlink" x="0px" y="0px" viewBox="0 0 652 652" style="enable-background:new 0 0 652 652;" xml:space="preserve"><path d="M497.1,142.2c-0.1-0.3-0.2-0.6-0.4-0.9c-0.5-0.7-1.4-1-2.3-1c-1.1,0-2.4,0.5-2.4,1.9c0,1.3,1.2,1.6,1.8,1.8 c0.3,0.1,1.8,0.5,2.1,0.6c0.6,0.2,2.4,0.8,2.4,2.8c0,1.5-1.2,3.1-3.9,3.1c-1.1,0-1.9-0.3-2.4-0.6c-0.8-0.5-1.2-1.3-1.4-2.3l1-0.5 c0,0.4,0.1,0.8,0.3,1.2c0.5,1,1.5,1.3,2.6,1.3c2,0,2.9-1.1,2.9-2.2c0-0.7-0.4-1.2-0.6-1.4c-0.5-0.4-1.1-0.5-2.4-0.9 c-1.5-0.4-3.1-0.9-3.1-2.9c0-2.1,1.8-2.7,3.4-2.7c2.7,0,3.3,1.7,3.6,2.3L497.1,142.2z"></path> <polygon points="510.2,150.1 509.2,150.1 509.3,141.2 505.9,150.1 505.2,150.1 501.8,141.2 501.9,150.1 500.9,150.1 500.9,139.6 502.1,139.6 505.6,148.5 509,139.6 510.2,139.6 "></polygon> <path d="M620.7,303.4c-2.7,0-5,2-5.4,4.6H339.4h-5l0-7h139.2V299H178.9v1.9h139.2l0,7h-5H37.2c-0.5-2.6-2.7-4.6-5.4-4.6 c-3,0-5.5,2.5-5.5,5.5c0,3,2.5,5.5,5.5,5.5c2.7,0,5-2,5.4-4.6h275.9h5l0,7H178.9v1.9h294.7v-1.9H334.3l0-7h5h275.9 c0.5,2.6,2.7,4.6,5.4,4.6c3,0,5.5-2.5,5.5-5.5C626.2,305.9,623.7,303.4,620.7,303.4"></path> <path d="M176.6,252.9l0.8-0.7c1.9-1.8,2.9-4.7,3-8.5v-95.2c-0.1-3.8-1.1-6.6-3-8.5l-0.8-0.7h8.3v113.5H176.6z M189.3,139.4h8.3 l-0.8,0.7c-1.6,1.3-2.5,3.2-2.8,5.5l-0.2,3v99.9h32.5c2.5,0.3,5.2-0.7,8.3-2.9l1.2-0.9l0.7,0.6l-4.1,7.7h-42.9V139.4z"></path> <path d="M314.5,262l-53.6-114.8l-1.2-2.3c-1.7-2.8-3.1-4.4-4.3-5l-1.1-0.6h8.5l54.1,117.1L314.5,262z M267.2,139.4h9.2l-0.5,0.7 l-0.6,1c-0.3,0.6-0.4,1.3-0.3,2.1c-0.1,0.9,0.1,1.7,0.3,2.4l0.7,1.9l42.6,92.4l33.8-94.4l0.3-1.1l0.2-1.7c-0.1-0.5-0.2-1-0.3-1.5 l-0.7-1.2l-0.6-0.7h10.1l-0.9,0.9c-1,1-2,2.5-2.9,4.5l-0.9,2l-37.7,104.4L267.2,139.4z"></path> <path d="M401.7,146.8c-0.6-1.2-1.4-2.4-2.4-3.6c-1.2-1.5-2.4-2.6-3.6-3.3l-1-0.5h8.2l62.3,113.5h-8.8l0.3-0.6 c0.5-0.7,0.7-1.4,0.6-2.2c0-0.7-0.1-1.3-0.4-2.1c-0.3-0.8-0.5-1.3-0.7-1.6l-25.6-45.8l-28.6,44.6c-1.1,1.7-1.7,3.2-1.6,4.5l0.2,1.5 c0.2,0.5,0.4,0.9,0.7,1.1l0.6,0.5h-13l1.7-1.1c2.3-1.6,4.8-4.3,7.3-8.1l30.3-47.5L401.7,146.8z M407.4,139.4h9.2l-0.5,0.6l-0.4,1 l-0.3,1.6c-0.1,0.5,0.1,1.2,0.6,2.1l0.6,1.4l20.5,36.7l23.7-36c1.1-1.7,1.6-3.1,1.5-4.3c-0.1-0.5-0.2-1-0.3-1.5l-0.7-1.1l-0.5-0.5 h12.7l-1.1,0.7c-1.7,1-3.2,2.5-4.6,4.5l-1.1,1.5l-27,41.2l32.1,58.3c1.2,2.4,2.8,4.4,4.6,6l1.6,1.4h-8.3L407.4,139.4z"></path> <path d="M233.2,383.9c0-1.7-0.3-3.5-0.7-5.1c1.9-0.3,3.9-0.5,6-0.6l0.2-2c-2.3,0.2-4.6,0.5-6.8,0.9c-3.8-10.2-16.4-18.6-40.8-18.6 c-48,0-75.9,25.1-75.9,40.6c0,6.8,5.5,11.7,17,11.7c27,0,51.1-14.8,61.3-39.2l-1-0.4c-7.3,15.2-44.6,37.5-62.9,37.5 c-8.5,0-12.6-4.1-12.6-9.8c0-14.2,25.6-39.1,72.9-39.1c24.3,0,36.1,8.1,39.1,17.8c-41.9,9.9-57.9,64.4-105.6,64.4 c-5.1,0-9.5-0.5-9.5-0.5l-1,1.2c8.5,1.1,15.8,1.6,22.2,1.6c23.3,0,34.3-7.5,47.4-25.1c2-2.6,4.1-5.7,6.3-8.7 c3.3,0.6,6.4,0.8,9.5,0.8C219.6,411.3,233.2,397.4,233.2,383.9 M196,409.9c-2.1,0-4.3-0.1-6.4-0.4c9.2-12.6,20.9-26.3,40-30.2 c0.2,1.2,0.4,2.5,0.4,3.8C230,396.1,216.1,409.9,196,409.9"></path> <path d="M538,429.6c-1.2-9.8-8.3-17.2-19.4-15.9c-5.2,0.6-11.2,3.1-17.9,8.1l0.9,0.8c6.1-4.6,11.5-6.9,16-7.4 c9.2-1.1,14.7,5.1,15.7,13.5c1.7,14.1-9.3,34.5-37.4,37.8c-15.3,1.8-29.4-5.5-30.8-17.4c-0.7-5.5,3.2-14.8,9-21.6 c13.8-16.1,34.1-38.2,45.8-49.3l-0.4-0.6c0,0-5.5,1.2-10,1.7c-6.7,8.5-16.3,18.4-26.4,29.7l-3.8,4.7c-0.7,0-1.3,0-1.8,0 c-16.1-0.1-27.5,6.2-34.3,13.1c-8.6,5.6-16.1,10.9-21,13.6c-2.6,1.5-7.1,3-10.4,3c-2.3,0-4.1-0.7-4.1-2.8c0-2.5,4.4-8.1,9.9-13.5 c13.5-2,22.9-9.1,22.9-12.4c0-1-0.8-1.6-2.7-1.6c-12.2,0-22.5,6.9-28.7,14.1c-13.5,9-23.9,16.3-27.6,16.3c-1,0-1.5-0.5-1.5-1.6 c0-6.1,23.7-16.6,23.7-26.3c0-3-0.9-6.1-0.9-9.2c0-0.4,0.2-0.9,0.8-1.2c1.6-0.7,4.9-2.8,4.9-5.1c0-1.2-0.9-1.8-2.1-1.8 c-2.1,0-5,1.9-5,6.1v1.9c-2,2.5-8.2,8.9-25.8,20.5v0c-13.8,9.2-24.4,16.7-28.2,16.7c-1,0-1.5-0.5-1.5-1.6 c0-6.1,23.7-16.6,23.7-26.3c0-3-0.9-6.1-0.9-9.2c0-0.4,0.2-0.9,0.8-1.2c1.6-0.7,4.9-2.8,4.9-5.1c0-1.2-0.9-1.8-2.1-1.8 c-2.1,0-5,1.9-5,6.1v1.9c-2,2.5-8.2,8.9-25.8,20.5l0,0c-8.6,5.7-16.3,11-21.1,13.7c-2.6,1.5-7.1,3-10.4,3c-2.3,0-4.1-0.7-4.1-2.8 c0-2.5,4.4-8.1,9.9-13.5c13.5-2,22.9-9.1,22.9-12.4c0-1-0.8-1.6-2.7-1.6c-10.9,0-20.2,5.5-26.5,11.8c-5.3,3.7-10.9,10.1-24.4,11.4 c18.8-23.3,22.7-49.6,59.6-64c1-0.3,1.9-0.7,2.9-0.9c0.7-0.2,1.3-0.3,2-0.4c0.3,0,0.7-0.1,1-0.1c0.2,0,0.5,0,0.7,0.1c0,0,0,0,0,0.1 c-0.1,0.1-0.1,0.3-0.3,0.4c-0.2,0.3-0.4,0.5-0.7,0.8c-0.5,0.5-1.1,1-1.6,1.4c-1.1,0.9-2.3,1.8-3.5,2.6l0.1,0.1 c1.3-0.7,2.5-1.5,3.8-2.3c0.6-0.4,1.2-0.9,1.8-1.3c0.3-0.2,0.6-0.5,0.8-0.8c0.1-0.1,0.3-0.3,0.4-0.5c0.1-0.2,0.3-0.5,0.1-0.9l0-0.1 l0,0c-0.5-0.3-0.8-0.3-1.3-0.4c-0.4,0-0.7,0-1.1,0c-0.7,0.1-1.4,0.2-2.1,0.4c-1.4,0.3-2.7,0.8-4,1.3c-0.1,0-0.1,0.1-0.2,0.1 c-29.3,10.8-39.8,31.8-59.9,56.6l-5.4,6.7c-0.9-0.7-2-2.3-2.3-3.6l5.6-4c-0.2-1.6-1.2-1.9-2.4-1.8c-3.2,0.3-4.5,2.6-4.4,5.1 c-6.2,4.2-11.7,7.8-15.4,9.9c-2.7,1.5-7.1,3-10.4,3c-2.3,0-4.1-0.7-4.1-2.8c0-2.5,4.4-8.1,9.9-13.5c13.5-2,22.9-9.1,22.9-12.4 c0-1-0.8-1.6-2.7-1.6c-9.9,0-18.6,4.5-24.7,10.1c-13.6,9-31,20.3-34.7,20.3c-1,0-1.5-0.5-1.5-1.6c0-6.1,23.7-16.6,23.7-26.3 c0-3-0.9-6.1-0.9-9.2c0-0.4,0.2-0.9,0.8-1.2c1.6-0.7,4.9-2.8,4.9-5.1c0-1.2-0.9-1.8-2.1-1.8c-2.1,0-5,1.9-5,6.1v1.9 c-2,2.5-8.4,9.1-27.1,21.3l0.7,0.6c17.4-11.4,24.2-18.3,26.4-20.9c0.2,1.9,0.6,3.7,0.6,4.4c0,4.7-25.2,18.7-25.2,28.6 c0,3.2,1.2,4.5,3.4,4.5c4.7,0,20-9.9,32.9-18.4c-4.2,4.7-6.7,9.7-6.7,13c0,3.9,3.2,5.4,7.1,5.4c3.9,0,8.6-1.4,12.3-3.4 c4.3-2.3,9.4-5.8,15.1-9.7c0.3,1.6,1.1,3.2,2.5,4.3c-14.2,16.9-30.3,32.7-55.6,35.5c-0.4,0-0.7,0.1-1,0.1c-0.9,0-1.9,0.1-2.9,0.2 c-1,0-2,0.1-3,0c-0.5,0-1-0.1-1.5-0.1c-0.4-0.1-0.8-0.1-1.3-0.4c-0.9-0.5-1.1-0.9-0.6-1.6c0.5-0.7,1.3-1.2,2-1.6 c0.7-0.4,1.4-0.8,2.1-1.2c2.7-1.3,4.7-2,4.7-2l0-0.1c0,0-2,0.5-4.8,1.6c-0.7,0.3-1.5,0.6-2.3,1c-0.8,0.4-1.6,0.9-2.3,1.7 c-0.3,0.4-0.7,1.1-0.5,1.8c0.2,0.7,0.8,1,1.2,1.3c0.4,0.3,1,0.5,1.6,0.6c0.5,0.1,1,0.2,1.6,0.2c1,0.1,2.1,0.1,3.1,0.1 c1,0,2-0.1,3-0.2c0.5,0,1-0.1,1.5-0.2c0.5,0,1,0,1.5-0.1c20.2-2,38.3-12.8,54-27.9c2.5-2.5,4.7-4.9,6.8-7.4 c11.1-1.1,17.1-4.3,20.8-7.2c-2.3,3.4-3.7,6.7-3.7,9.1c0,3.9,3.2,5.4,7.1,5.4c3.9,0,8.6-1.4,12.3-3.4c5.5-2.9,12.4-7.9,20.2-13.1h0 c17.4-11.4,24.2-18.3,26.4-20.9c0.2,1.9,0.6,3.7,0.6,4.4c0,4.7-25.2,18.7-25.2,28.6c0,3.2,1.2,4.5,3.4,4.5c5.2,0,15.9-7.8,29-16.5 h0c17.4-11.4,24.2-18.3,26.4-20.9c0.2,1.9,0.6,3.7,0.6,4.4c0,4.7-25.2,18.7-25.2,28.6c0,3.2,1.2,4.5,3.4,4.5 c4.9,0,14.9-7,27.1-15.2c-2.6,3.7-4.1,7.2-4.1,9.8c0,3.9,3.2,5.4,7.1,5.4c3.9,0,8.6-1.4,12.3-3.4c5-2.7,11.2-7.1,18.2-11.7 c-3.4,4.2-5.2,8.4-5.2,11.3c0,2.3,1.1,3.8,3.2,3.8c5.9,0,19.2-8.4,28-14.7c-3.3,6.1-4.2,12.5-3.6,17.9c1.6,13.5,14.5,22.4,34,20.1 C528.2,464,539.7,444.2,538,429.6 M437.7,413.6c1.2,0,1.7,0.3,1.7,0.9c0,2.6-10.3,9.9-21,11.5C425.2,419.6,433.4,413.6,437.7,413.6 M274.2,413.6c1.2,0,1.7,0.3,1.7,0.9c0,2.6-10.3,9.9-21,11.5C261.6,419.6,269.9,413.6,274.2,413.6 M337.4,414.5 c0,2.6-10.3,9.9-21,11.5c6.8-6.4,15.1-12.4,19.3-12.4C336.9,413.6,337.4,413.9,337.4,414.5 M439.9,443.3c-0.7,0-1.1-0.3-1.1-0.9 c0-5,23.3-28,37.7-27.9c0.8,0,1.4,0,2,0l-9.8,12.1c-0.2,0.3-0.3,0.5-0.5,0.8C459.2,433.9,445.3,443.3,439.9,443.3"></path> <path d="M143.2,502.8c0.1,0,0.1,0,0.1-0.1v-0.4c0-3.1,0-3.4,0-4.1c0-0.6-0.2-0.9-0.9-1.1c-0.1,0-0.4,0-0.7-0.1 c-0.3,0-0.4-0.1-0.4-0.2c0-0.1,0.1-0.2,0.4-0.2c1.2,0,2.9,0.1,3.1,0.1c0.2,0,2.5-0.1,3.3-0.1c0.3,0,0.4,0.1,0.4,0.2 c0,0.1-0.1,0.2-0.3,0.2c-0.3,0-0.5,0-0.7,0.1c-0.5,0.1-0.7,0.4-0.7,1c0,0.6,0,1.2,0,4.2v3.5c0,1.9,0,3.4,0.1,4.2 c0.1,0.7,0.2,1,0.8,1.1c0.3,0,0.7,0.1,0.9,0.1c0.2,0,0.3,0.1,0.3,0.2c0,0.1-0.2,0.2-0.4,0.2c-1.4,0-3.4-0.1-3.7-0.1 c-0.3,0-1.9,0.1-2.8,0.1c-0.4,0-0.4-0.1-0.4-0.2c0-0.1,0.1-0.2,0.4-0.2c0.2,0,0.4,0,0.6-0.1c0.5-0.1,0.6-0.5,0.7-1.1 c0.1-0.8,0.1-2.1,0.1-4v-1.6c0-0.1-0.1-0.1-0.1-0.1H137c-0.1,0-0.1,0-0.1,0.1v2.1c0,1.9,0,2.7,0.1,3.6c0.1,0.6,0.2,1,0.8,1.1 c0.4,0.1,0.6,0.1,0.8,0.1c0.2,0,0.4,0.1,0.4,0.2c0,0.1-0.1,0.2-0.4,0.2c-1.1,0-3.5-0.1-3.7-0.1c-0.2,0-2.3,0.1-2.9,0.1 c-0.2,0-0.4,0-0.4-0.2c0-0.1,0.1-0.2,0.3-0.2c0.2,0,0.4,0,0.6-0.1c0.5-0.1,0.7-0.6,0.7-1.2c0.1-0.8,0.1-2.2,0.1-4.1v-3.5 c0-3.1,0-3.5-0.1-4.2c0-0.7-0.3-1.1-1-1.2c-0.2,0-0.3,0-0.6-0.1c-0.4,0-0.4-0.1-0.4-0.2c0-0.1,0.2-0.2,0.4-0.2 c1.2,0,2.7,0.1,3.1,0.1c0.8,0,2.4-0.1,3.3-0.1c0.4,0,0.4,0.1,0.4,0.2c0,0.1-0.1,0.2-0.4,0.2c-0.2,0-0.5,0-0.7,0.1 c-0.5,0.1-0.6,0.6-0.7,1.2c-0.1,0.6-0.1,1.5-0.1,3.9v0.4c0,0.1,0.1,0.1,0.1,0.1H143.2z"></path> <path d="M160.6,504.3c0-4,2.7-7.8,8.5-7.8c5,0,8.2,3.4,8.2,7.4c0,4.6-3.1,8.2-8.3,8.2C163.1,512,160.6,507.8,160.6,504.3 M173.3,504.7c0-3.3-1.4-7.1-4.9-7.1c-1.8,0-3.9,1-3.9,5.7c0,3.8,1.6,7.4,5,7.4C170.8,510.7,173.3,510.2,173.3,504.7"></path> <path d="M198.1,506c0,1.6,0,3.4,0.1,4.2c0,0.5,0.2,0.9,0.8,1c0.3,0,0.5,0.1,0.9,0.1c0.3,0,0.4,0.1,0.4,0.2c0,0.1-0.1,0.2-0.5,0.2 c-1.3,0-3.3-0.1-3.6-0.1c-0.3,0-2.3,0.1-2.9,0.1c-0.3,0-0.4,0-0.4-0.2c0-0.1,0.1-0.2,0.4-0.2c0.2,0,0.4,0,0.6-0.1 c0.4-0.1,0.6-0.5,0.6-1.1c0.1-0.8,0.1-2.3,0.1-4.2v-7.8c-0.8,0-2,0-3,0c-1.1,0.1-1.5,0.3-1.8,1c-0.1,0.2-0.1,0.3-0.2,0.4 c0,0.2-0.1,0.3-0.2,0.3c-0.2,0-0.2-0.2-0.2-0.4c0.1-0.8,0.3-1.9,0.4-2.7c0-0.3,0.1-0.5,0.2-0.5c0.1,0,0.2,0.1,0.7,0.2 c0.4,0.1,1.4,0.1,2.2,0.1h8.6c0.6,0,1,0,1.3-0.1c0.3-0.1,0.5-0.1,0.6-0.1c0.2,0,0.2,0.1,0.2,0.6c0,0.3-0.1,2.1-0.1,2.6 c0,0.3-0.1,0.4-0.2,0.4c-0.2,0-0.2-0.1-0.2-0.4c0-0.2,0-0.3,0-0.4c-0.1-0.6-0.4-1.1-1.5-1.2c-0.7-0.1-1.7-0.1-3.2-0.1V506z"></path> <path d="M216.7,502.5c0-3.2,0-3.6-0.1-4.3c0-0.6-0.2-0.9-0.7-1c-0.2,0-0.5,0-0.7-0.1c-0.3,0-0.4-0.1-0.4-0.2s0.1-0.2,0.4-0.2 c1.1,0,2.1,0.1,3,0.1c0.4,0,5.3,0,5.6,0c0.4,0,0.9,0,1.1-0.1c0.1,0,0.2-0.1,0.3-0.1c0.1,0,0.1,0.1,0.1,0.2c0,0.1,0,0.3-0.1,0.9 c-0.1,0.4-0.1,1.1-0.2,2.1c0,0.2-0.1,0.3-0.2,0.3c-0.1,0-0.2-0.1-0.2-0.3c0-0.2,0-0.4-0.1-0.7c-0.1-0.5-0.4-0.7-1.3-0.8 c-0.7-0.1-2.4-0.1-3-0.1c-0.1,0-0.2,0.1-0.2,0.2v4.4c0,0.1,0,0.2,0.2,0.2c0.6,0,2.2,0,2.9,0c1,0,1.2-0.1,1.4-0.5 c0.1-0.2,0.2-0.3,0.3-0.3c0.1,0,0.1,0.1,0.1,0.2c0,0.2-0.1,0.9-0.2,1.7c0,0.5,0,1.4,0,1.6c0,0.3-0.1,0.4-0.2,0.4 c-0.1,0-0.2-0.1-0.2-0.3c0-0.2,0-0.3-0.1-0.5c-0.1-0.6-0.4-0.9-1.3-1c-0.6,0-2.2-0.1-2.8-0.1c-0.1,0-0.1,0.1-0.1,0.3v1.4 c0,0.7,0,1.8,0,2.6c0,1.4,0.3,1.7,2.5,1.7c0.5,0,1.3,0,1.8-0.2c0.6-0.2,0.8-0.7,1-1.6c0-0.2,0.1-0.4,0.2-0.4c0.2,0,0.2,0.2,0.2,0.4 c0,0.8-0.2,2.3-0.3,2.7c-0.1,0.5-0.3,0.5-1,0.5c-2.7,0-4.2-0.1-6.3-0.1c-0.9,0-1.8,0.1-2.9,0.1c-0.4,0-0.5-0.1-0.5-0.2 c0-0.1,0.1-0.2,0.4-0.2c0.2,0,0.4,0,0.6-0.1c0.6-0.1,0.6-0.8,0.7-2.1c0-0.8,0.1-2,0.1-3.2V502.5z"></path> <path d="M244,506c0,2-0.1,3.4,0.3,3.9c0.3,0.4,0.7,0.5,2.3,0.5c1.1,0,1.7,0,2.3-0.3c0.5-0.2,0.8-0.7,1-1.7c0.1-0.2,0.1-0.4,0.3-0.4 c0.1,0,0.1,0.1,0.1,0.4c0,0.4-0.2,2.3-0.4,2.9c-0.2,0.5-0.3,0.5-1.1,0.5c-2.7,0-4.6-0.1-6.7-0.1c-0.9,0-2,0.1-3.1,0.1 c-0.3,0-0.4,0-0.4-0.2c0-0.1,0.1-0.2,0.4-0.2c0.2,0,0.5,0,0.7-0.1c0.7-0.1,0.7-0.5,0.8-2.1c0-0.8,0.1-2,0.1-3.2v-3.5 c0-3.2,0-3.6-0.1-4.2c0-0.6-0.2-0.9-0.7-1c-0.2-0.1-0.5-0.1-0.8-0.1c-0.2,0-0.4,0-0.4-0.2c0-0.2,0.2-0.2,0.6-0.2 c1.1,0,2.2,0.1,2.9,0.1c0.2,0,2.7-0.1,3.4-0.1c0.4,0,0.5,0.1,0.5,0.2c0,0.2-0.2,0.2-0.5,0.2c-0.2,0-0.4,0-0.7,0.1 c-0.5,0.1-0.7,0.5-0.7,1.2c0,0.6-0.1,1-0.1,4.3V506z"></path> <path d="M262.4,511.4c-0.3-0.1-0.4-0.4-0.4-0.8c0-1.6,0.1-2.4,0.1-2.9c0-0.4,0.1-0.5,0.2-0.5c0.1,0,0.2,0.2,0.2,0.3 c0,0.2,0,0.4,0.1,0.6c0.3,1.6,1.8,2.6,3.4,2.6c1.9,0,2.5-1,2.5-1.8c0-0.8-0.2-1.5-1.8-2.7l-1.2-0.9c-2.4-1.7-3.1-3.1-3.1-4.9 c0-2.3,1.9-4.1,5.1-4.1c0.9,0,1.5,0,2.3,0.2c0.3,0.1,0.7,0.1,1,0.2c0.2,0.1,0.3,0.1,0.3,0.3c0,0.6-0.1,1-0.1,2.8 c0,0.4-0.1,0.5-0.2,0.5c-0.1,0-0.2-0.1-0.2-0.4c0-0.2-0.1-0.7-0.4-1.1c-0.4-0.6-1.3-1.3-2.7-1.3c-1.6,0-2.2,0.9-2.2,1.8 c0,0.7,0.2,1.5,1.6,2.4l1,0.7c2.8,1.8,3.7,3.1,3.7,5.1c0,1.4-0.6,2.7-2.1,3.6c-1.2,0.7-2.4,0.9-3.5,0.9 C264.3,512,263.2,511.8,262.4,511.4"></path> <path d="M301.1,503.6c1-1.2,1.9-1.8,2.4-2.2c0.2-0.2,0.2-0.3,0-0.5c-0.3-0.4-0.7-1.2-0.7-2.1c0-0.9,0.1-1.7,0.9-2.9 c0.8-1.2,1.7-1.8,3-2.6c1-0.5,1.7-0.7,2.2-0.7c1.7,0,2.5,0.8,2.5,1.6c0,0.3-0.1,0.5-0.3,0.8c-0.2,0.3-0.8,0.8-1,0.9 c-0.2,0.2-0.4,0.1-0.4-0.1c-0.4-1.5-1.6-1.6-2.4-1.6c-0.6,0-1.2,0.3-1.6,0.7c-0.4,0.5-0.7,1.3-0.7,2c0,2.7,1.7,3.2,3.1,3.4 c0.2,0,0.2,0.2,0,0.4c-0.2,0.2-0.4,0.5-0.7,0.5l-1.2,0c-0.6,0-1.5,0.1-2.3,0.7c-1.1,0.9-1.4,2.7-1.4,3.7c0,4.6,3.7,6.1,6.6,6.1 c1.8,0,3.2-0.3,4.4-1.6c1.1-1,1.6-2.4,1.6-4.1c0-1.4-0.4-2.6-1.2-3.2c-0.3-0.2-0.7-0.3-1.2-0.3c-1.9,0-2.5,1.2-2.5,2.2 c0,0.8,0.3,1.3,0.6,1.6c0.2,0.1,0.2,0.3,0.2,0.5c-0.1,0.2-0.5,0.6-0.8,0.8c-0.4,0.2-0.9,0.2-1.4-0.1c-0.4-0.3-0.6-0.9-0.6-1.5 c0-0.5,0.3-1.9,2.2-3.3c1.6-1.2,3.1-1.5,4.9-1.5c1,0,1.4,0,2.1,0.1c0.6,0,1.3,0.1,2,0.1c1.3,0,2.2-0.5,2.2-1.4 c0-0.8-0.3-1.2-0.6-1.4c-0.2-0.2-0.2-0.4-0.1-0.7c0.2-0.4,0.4-0.6,0.7-0.8c0.4-0.3,0.8-0.3,1.2-0.1c0.4,0.2,0.8,0.7,0.8,1.4 c0,1.3-1,2.4-1.8,3.1c-1,0.8-2.9,1.4-3.5,1.5c-0.5,0-1,0.1-1.2,0.1c-0.2,0-0.3,0.2-0.2,0.5c0.1,0.2,0.2,1,0.2,1.6 c0,2.1-1.5,4.6-4,6.5c-2.4,1.8-4.8,2-5.9,2c-4.9,0-7.5-3.1-7.5-6.6C299.8,506.3,300.2,504.7,301.1,503.6"></path> <path d="M346.8,502.5c0-3.1,0-3.5-0.1-4.1c0-0.8-0.3-1.1-0.8-1.2c-0.3-0.1-0.6-0.1-0.8-0.1c-0.2,0-0.4-0.1-0.4-0.2s0.1-0.2,0.4-0.2 c0.9,0,2.8,0.1,3,0.1c0.4,0,2.3-0.1,3.2-0.1c1.9,0,3.2,0.2,4.1,0.7c1,0.5,1.8,1.5,1.8,3c0,1.7-1,2.9-2.7,4c1.2,1.7,2.7,3.9,3.9,5.3 c1,1.2,1.5,1.5,2.1,1.6c0.2,0,0.3,0,0.5,0.1c0.2,0,0.3,0.1,0.3,0.2c0,0.2-0.2,0.2-0.4,0.2h-1.8c-2.1,0-2.9-0.2-3.6-0.7 c-0.6-0.4-1.3-1.2-2-2.5c-0.9-1.5-1.4-2.3-1.7-2.9c0-0.1-0.1-0.1-0.2-0.1h-1.3c-0.1,0-0.2,0-0.2,0.2v1c0,1.6,0,2.5,0.1,3.3 c0,0.5,0.2,1,0.8,1.1c0.3,0.1,0.5,0.1,0.9,0.1c0.3,0,0.4,0.1,0.4,0.2c0,0.1-0.1,0.2-0.4,0.2c-1.3,0-3.5-0.1-3.6-0.1 c-0.2,0-2.2,0.1-2.8,0.1c-0.3,0-0.4-0.1-0.4-0.2s0.1-0.2,0.4-0.2c0.2,0,0.5,0,0.7-0.1c0.4-0.1,0.6-0.4,0.6-1.1 c0.1-0.8,0.1-2.2,0.1-4.1V502.5z M350.2,503.8c0,0.2,0.1,0.2,0.2,0.3c0.4,0.2,1,0.3,1.5,0.3c0.5,0,0.9-0.1,1.3-0.3 c0.4-0.3,0.8-1.2,0.8-2.5c0-2.8-1.8-3.6-2.8-3.6c-0.3,0-0.7,0-0.8,0.1c-0.1,0-0.1,0.1-0.1,0.2V503.8z"></path> <path d="M373.6,502.5c0-3.2,0-3.6-0.1-4.3c0-0.6-0.2-0.9-0.7-1c-0.2,0-0.5,0-0.7-0.1c-0.3,0-0.4-0.1-0.4-0.2s0.1-0.2,0.4-0.2 c1.1,0,2.1,0.1,3,0.1c0.4,0,5.3,0,5.6,0c0.4,0,0.9,0,1.1-0.1c0.1,0,0.2-0.1,0.3-0.1c0.1,0,0.1,0.1,0.1,0.2c0,0.1,0,0.3-0.1,0.9 c-0.1,0.4-0.1,1.1-0.2,2.1c0,0.2-0.1,0.3-0.2,0.3c-0.1,0-0.2-0.1-0.2-0.3c0-0.2,0-0.4-0.1-0.7c-0.1-0.5-0.4-0.7-1.3-0.8 c-0.7-0.1-2.4-0.1-3-0.1c-0.1,0-0.2,0.1-0.2,0.2v4.4c0,0.1,0,0.2,0.2,0.2c0.6,0,2.2,0,2.9,0c1,0,1.2-0.1,1.4-0.5 c0.1-0.2,0.2-0.3,0.3-0.3c0.1,0,0.1,0.1,0.1,0.2c0,0.2-0.1,0.9-0.2,1.7c0,0.5,0,1.4,0,1.6c0,0.3-0.1,0.4-0.2,0.4 c-0.1,0-0.2-0.1-0.2-0.3c0-0.2,0-0.3-0.1-0.5c-0.1-0.6-0.4-0.9-1.3-1c-0.6,0-2.2-0.1-2.8-0.1c-0.1,0-0.1,0.1-0.1,0.3v1.4 c0,0.7,0,1.8,0,2.6c0,1.4,0.3,1.7,2.5,1.7c0.5,0,1.3,0,1.8-0.2c0.6-0.2,0.8-0.7,1-1.6c0-0.2,0.1-0.4,0.2-0.4c0.2,0,0.2,0.2,0.2,0.4 c0,0.8-0.2,2.3-0.3,2.7c-0.1,0.5-0.3,0.5-1,0.5c-2.7,0-4.2-0.1-6.3-0.1c-0.9,0-1.8,0.1-2.9,0.1c-0.4,0-0.5-0.1-0.5-0.2 c0-0.1,0.1-0.2,0.4-0.2c0.2,0,0.4,0,0.6-0.1c0.6-0.1,0.6-0.8,0.7-2.1c0-0.8,0.1-2,0.1-3.2V502.5z"></path> <path d="M395.6,511.4c-0.3-0.1-0.4-0.4-0.4-0.8c0-1.6,0.1-2.4,0.1-2.9c0-0.4,0.1-0.5,0.2-0.5c0.1,0,0.2,0.2,0.2,0.3 c0,0.2,0,0.4,0.1,0.6c0.3,1.6,1.8,2.6,3.4,2.6c1.9,0,2.5-1,2.5-1.8c0-0.8-0.2-1.5-1.8-2.7l-1.2-0.9c-2.4-1.7-3.1-3.1-3.1-4.9 c0-2.3,1.9-4.1,5.1-4.1c0.9,0,1.5,0,2.3,0.2c0.3,0.1,0.7,0.1,1,0.2c0.2,0.1,0.3,0.1,0.3,0.3c0,0.6-0.1,1-0.1,2.8 c0,0.4-0.1,0.5-0.2,0.5c-0.1,0-0.2-0.1-0.2-0.4c0-0.2-0.1-0.7-0.4-1.1c-0.4-0.6-1.3-1.3-2.7-1.3c-1.6,0-2.2,0.9-2.2,1.8 c0,0.7,0.2,1.5,1.6,2.4l1,0.7c2.8,1.8,3.7,3.1,3.7,5.1c0,1.4-0.6,2.7-2.1,3.6c-1.2,0.7-2.4,0.9-3.5,0.9 C397.4,512,396.3,511.8,395.6,511.4"></path> <path d="M416.7,504.3c0-4,2.7-7.8,8.5-7.8c5.1,0,8.2,3.4,8.2,7.4c0,4.6-3.1,8.2-8.3,8.2C419.2,512,416.7,507.8,416.7,504.3 M429.4,504.7c0-3.3-1.4-7.1-4.9-7.1c-1.8,0-3.9,1-3.9,5.7c0,3.8,1.6,7.4,5,7.4C426.9,510.7,429.4,510.2,429.4,504.7"></path> <path d="M448,502.5c0-3.1,0-3.5-0.1-4.1c0-0.8-0.3-1.1-0.8-1.2c-0.3-0.1-0.6-0.1-0.8-0.1c-0.2,0-0.4-0.1-0.4-0.2s0.1-0.2,0.4-0.2 c0.9,0,2.8,0.1,3,0.1c0.4,0,2.3-0.1,3.2-0.1c1.9,0,3.2,0.2,4.1,0.7c1,0.5,1.8,1.5,1.8,3c0,1.7-1,2.9-2.7,4c1.2,1.7,2.7,3.9,3.9,5.3 c1.1,1.2,1.5,1.5,2.1,1.6c0.2,0,0.3,0,0.5,0.1c0.2,0,0.3,0.1,0.3,0.2c0,0.2-0.2,0.2-0.4,0.2h-1.8c-2.1,0-2.9-0.2-3.6-0.7 c-0.6-0.4-1.3-1.2-2-2.5c-0.9-1.5-1.4-2.3-1.7-2.9c0-0.1-0.1-0.1-0.2-0.1h-1.3c-0.1,0-0.2,0-0.2,0.2v1c0,1.6,0,2.5,0.1,3.3 c0,0.5,0.2,1,0.8,1.1c0.3,0.1,0.5,0.1,0.9,0.1c0.3,0,0.4,0.1,0.4,0.2c0,0.1-0.1,0.2-0.4,0.2c-1.3,0-3.5-0.1-3.6-0.1 c-0.2,0-2.2,0.1-2.8,0.1c-0.3,0-0.4-0.1-0.4-0.2s0.1-0.2,0.4-0.2c0.2,0,0.5,0,0.7-0.1c0.4-0.1,0.6-0.4,0.6-1.1 c0.1-0.8,0.1-2.2,0.1-4.1V502.5z M451.5,503.8c0,0.2,0.1,0.2,0.2,0.3c0.4,0.2,1,0.3,1.5,0.3c0.5,0,0.9-0.1,1.3-0.3 c0.4-0.3,0.8-1.2,0.8-2.5c0-2.8-1.8-3.6-2.8-3.6c-0.3,0-0.7,0-0.8,0.1c-0.1,0-0.1,0.1-0.1,0.2V503.8z"></path> <path d="M479.6,506c0,1.6,0,3.4,0.1,4.2c0,0.5,0.2,0.9,0.8,1c0.3,0,0.5,0.1,0.9,0.1c0.3,0,0.4,0.1,0.4,0.2c0,0.1-0.1,0.2-0.5,0.2 c-1.3,0-3.3-0.1-3.6-0.1c-0.3,0-2.3,0.1-2.9,0.1c-0.3,0-0.4,0-0.4-0.2c0-0.1,0.1-0.2,0.4-0.2c0.2,0,0.4,0,0.6-0.1 c0.4-0.1,0.6-0.5,0.6-1.1c0.1-0.8,0.1-2.3,0.1-4.2v-7.8c-0.8,0-2,0-3,0c-1.1,0.1-1.5,0.3-1.8,1c-0.1,0.2-0.1,0.3-0.2,0.4 c0,0.2-0.1,0.3-0.2,0.3c-0.2,0-0.2-0.2-0.2-0.4c0.1-0.8,0.3-1.9,0.4-2.7c0-0.3,0.1-0.5,0.2-0.5c0.1,0,0.2,0.1,0.7,0.2 c0.4,0.1,1.5,0.1,2.2,0.1h8.6c0.6,0,1,0,1.3-0.1c0.3-0.1,0.5-0.1,0.6-0.1c0.2,0,0.2,0.1,0.2,0.6c0,0.3-0.1,2.1-0.1,2.6 c0,0.3-0.1,0.4-0.2,0.4c-0.2,0-0.2-0.1-0.2-0.4c0-0.2,0-0.3,0-0.4c-0.1-0.6-0.4-1.1-1.5-1.2c-0.7-0.1-1.7-0.1-3.2-0.1V506z"></path> <path d="M496.9,511.4c-0.3-0.1-0.4-0.4-0.4-0.8c0-1.6,0.1-2.4,0.1-2.9c0-0.4,0.1-0.5,0.2-0.5c0.1,0,0.2,0.2,0.2,0.3 c0,0.2,0,0.4,0.1,0.6c0.3,1.6,1.8,2.6,3.4,2.6c1.9,0,2.5-1,2.5-1.8c0-0.8-0.2-1.5-1.8-2.7l-1.2-0.9c-2.4-1.7-3.1-3.1-3.1-4.9 c0-2.3,1.9-4.1,5.1-4.1c0.9,0,1.4,0,2.3,0.2c0.3,0.1,0.7,0.1,1,0.2c0.2,0.1,0.3,0.1,0.3,0.3c0,0.6-0.1,1-0.1,2.8 c0,0.4-0.1,0.5-0.2,0.5c-0.1,0-0.2-0.1-0.2-0.4c0-0.2-0.1-0.7-0.4-1.1c-0.4-0.6-1.3-1.3-2.7-1.3c-1.6,0-2.2,0.9-2.2,1.8 c0,0.7,0.2,1.5,1.6,2.4l1,0.7c2.8,1.8,3.7,3.1,3.7,5.1c0,1.4-0.6,2.7-2.1,3.6c-1.2,0.7-2.4,0.9-3.5,0.9 C498.7,512,497.7,511.8,496.9,511.4"></path></svg>